<?xml version="1.0" encoding="UTF-8"?>
<svg version="1.1" xmlns="http://www.w3.org/2000/svg" width="500" height="500">
<path d="M0 0 C1.68711423 1.6459651 3.3545622 3.31237149 5 5 C5.825 5.66 6.65 6.32 7.5 7 C10.2100065 9.1680052 12.57721501 11.51664538 15 14 C15.86625 14.7425 16.7325 15.485 17.625 16.25 C20.73590633 19.85210207 22.36071301 23.26603935 23 28 C22.50064322 30.96808695 21.66480093 32.36854046 20 35 C17.9375 36.1875 17.9375 36.1875 16 37 C15.71898437 37.60457031 15.43796875 38.20914063 15.1484375 38.83203125 C13.73178806 41.50631846 12.11223953 42.7069153 9.6875 44.5 C8.88183594 45.10585938 8.07617188 45.71171875 7.24609375 46.3359375 C6.50488281 46.88507813 5.76367188 47.43421875 5 48 C2.26936449 50.11003653 -0.14951598 52.15316271 -2.5625 54.625 C-6.06989228 58.04245915 -8.85395535 59.31289001 -13.75 59.5 C-20.61922583 59.34891732 -24.24909979 55.70148285 -28.95703125 51.078125 C-32.56561942 47.63324004 -34.70519138 45.6688991 -39.8125 45.4375 C-40.54082031 45.47746094 -41.26914062 45.51742187 -42.01953125 45.55859375 C-42.67308594 45.37425781 -43.32664062 45.18992187 -44 45 C-44.433125 44.01902344 -44.86625 43.03804688 -45.3125 42.02734375 C-45.869375 41.02832031 -46.42625 40.02929688 -47 39 C-50.40163148 38.05689861 -50.40163148 38.05689861 -54.1875 38.125 C-55.45980469 38.08632813 -56.73210937 38.04765625 -58.04296875 38.0078125 C-59.01878906 38.00523437 -59.99460937 38.00265625 -61 38 C-61.66 39.98 -62.32 41.96 -63 44 C-66.3 44 -69.6 44 -73 44 C-70.67738867 35.77733236 -67.78125669 27.87505904 -64.625 19.9375 C-64.38974609 19.3185083 -64.15449219 18.6995166 -63.91210938 18.06176758 C-63.22363568 16.25120505 -62.5067525 14.45152516 -61.7890625 12.65234375 C-61.37350098 11.59007568 -60.95793945 10.52780762 -60.52978516 9.43334961 C-59 7 -59 7 -56.48583984 6.15454102 C-51.50300775 5.84476566 -51.50300775 5.84476566 -49 7 C-47.3298501 9.8793818 -46.13034552 12.87418419 -45 16 C-40.74124703 12.40371971 -36.5967979 8.71785558 -32.5 4.9375 C-21.87089635 -4.7306162 -12.72542649 -10.12249834 0 0 Z M-54 20 C-54.69699552 21.45381897 -55.38233866 22.91322953 -56.0625 24.375 C-56.44535156 25.18710938 -56.82820313 25.99921875 -57.22265625 26.8359375 C-57.60744141 27.90714844 -57.60744141 27.90714844 -58 29 C-57.67 29.66 -57.34 30.32 -57 31 C-54.69 31 -52.38 31 -50 31 C-50.55105909 27.0507432 -51.38935371 23.65079826 -53 20 C-53.33 20 -53.66 20 -54 20 Z " fill="#51B637" transform="translate(469,220)"/>
<path d="M0 0 C5.43675945 4.59104132 8.41586227 9.99173717 9.23828125 17.04296875 C9.45226181 23.22588081 7.84405067 27.57139233 5 33 C4.66742188 33.72574219 4.33484375 34.45148438 3.9921875 35.19921875 C3 37 3 37 1 38 C2.32 38.99 3.64 39.98 5 41 C4.67 41.99 4.34 42.98 4 44 C1.125 44.125 1.125 44.125 -2 44 C-2.66 43.34 -3.32 42.68 -4 42 C-6.44230125 42.01835967 -6.44230125 42.01835967 -9.1875 42.4375 C-15.44797259 43.12492444 -21.3322007 43.07680533 -27 40 C-28.94844861 36.93215696 -29.28864975 34.39204038 -29.4140625 30.796875 C-29.45273437 29.8171875 -29.49140625 28.8375 -29.53125 27.828125 C-29.5621875 26.81234375 -29.593125 25.7965625 -29.625 24.75 C-29.66367187 23.71875 -29.70234375 22.6875 -29.7421875 21.625 C-29.83631674 19.0835106 -29.92194979 16.54202567 -30 14 C-30.66 13.67 -31.32 13.34 -32 13 C-32.15304509 16.74960478 -32.07133336 19.75924991 -31 23.375 C-29.80718571 27.69895179 -29.81841174 31.55108753 -30 36 C-34.66584472 31.83857092 -37.52812327 27.95600767 -38.28515625 21.609375 C-38.53303452 14.58256501 -36.98762965 9.28723366 -33.375 3.3125 C-23.71449178 -6.09378432 -11.24501075 -7.33263283 0 0 Z M-25 4 C-24.34 4.66 -23.68 5.32 -23 6 C-23.33 6.66 -23.66 7.32 -24 8 C-17.4 8 -10.8 8 -4 8 C-3.67 7.01 -3.34 6.02 -3 5 C-11.04131323 0.32141776 -16.60148722 -0.11355728 -25 4 Z M-3 6 C-3 6.66 -3 7.32 -3 8 C-2.34 7.67 -1.68 7.34 -1 7 C-1.66 6.67 -2.32 6.34 -3 6 Z M-23 13 C-23 14.65 -23 16.3 -23 18 C-22.08476563 18.02578125 -21.16953125 18.0515625 -20.2265625 18.078125 C-18.44378906 18.16320312 -18.44378906 18.16320312 -16.625 18.25 C-14.84996094 18.31960937 -14.84996094 18.31960937 -13.0390625 18.390625 C-11.53472656 18.69226563 -11.53472656 18.69226563 -10 19 C-9.34 20.32 -8.68 21.64 -8 23 C-12.95 23.33 -17.9 23.66 -23 24 C-23 27.63 -23 31.26 -23 35 C-19.17679443 36.42258812 -16.08718695 37.24042276 -12 37 C-12.33 35.68 -12.66 34.36 -13 33 C-12.34 33 -11.68 33 -11 33 C-10.67 32.34 -10.34 31.68 -10 31 C-7.13275314 31.57344937 -6.1385485 31.8614515 -4 34 C-2.67607028 35.01241685 -1.34400833 36.01439389 0 37 C-0.2475 36.175 -0.495 35.35 -0.75 34.5 C-1.01112489 30.84425152 -0.76419027 30.14624659 0.9375 27.125 C3.3245433 22.829974 3.50436742 19.87555171 3 15 C1.18171417 12.75620599 1.18171417 12.75620599 -1.43017578 12.77294922 C-2.92266846 12.78865967 -2.92266846 12.78865967 -4.4453125 12.8046875 C-6.05986328 12.81435547 -6.05986328 12.81435547 -7.70703125 12.82421875 C-8.83496094 12.84097656 -9.96289062 12.85773438 -11.125 12.875 C-12.82849609 12.88853516 -12.82849609 12.88853516 -14.56640625 12.90234375 C-17.37781299 12.92596902 -20.18880298 12.95890987 -23 13 Z " fill="#62A850" transform="translate(70,225)"/>
<path d="M0 0 C1.68711423 1.6459651 3.3545622 3.31237149 5 5 C5.825 5.66 6.65 6.32 7.5 7 C10.2100065 9.1680052 12.57721501 11.51664538 15 14 C15.86625 14.7425 16.7325 15.485 17.625 16.25 C20.73590633 19.85210207 22.36071301 23.26603935 23 28 C22.50064322 30.96808695 21.66480093 32.36854046 20 35 C17.9375 36.1875 17.9375 36.1875 16 37 C15.505 37.99 15.505 37.99 15 39 C13.75491604 41.49016793 12.53283204 41.98686718 10 43 C9.505 41.02 9.505 41.02 9 39 C8.01 39.99 7.02 40.98 6 42 C5.01 41.505 5.01 41.505 4 41 C4 40.01 4 39.02 4 38 C2.68 38 1.36 38 0 38 C-1.485 33.545 -1.485 33.545 -3 29 C-3.99 29 -4.98 29 -6 29 C-7.34516765 22.64102564 -7.34516765 22.64102564 -5.6875 19.5625 C-4 18 -4 18 -2 18 C-2.061875 17.113125 -2.12375 16.22625 -2.1875 15.3125 C-1.98048018 11.65514983 -1.083926 9.95222849 1 7 C-1.97 7 -4.94 7 -8 7 C-8.226875 7.680625 -8.45375 8.36125 -8.6875 9.0625 C-10.35572357 12.79614324 -12.55729608 15.72163421 -15 19 C-17.38883198 16.82335653 -18.7242282 14.73815276 -20.1875 11.875 C-22.01063371 8.81437781 -22.01063371 8.81437781 -25.1015625 7.2578125 C-27.55196074 6.92881712 -27.55196074 6.92881712 -31 7 C-30.65598287 4.05600726 -30.02683744 3.02678774 -27.890625 0.89453125 C-27.01921875 0.20746094 -26.1478125 -0.47960937 -25.25 -1.1875 C-24.38890625 -1.88230469 -23.5278125 -2.57710937 -22.640625 -3.29296875 C-15.04829935 -8.20102542 -6.6352554 -5.27804406 0 0 Z " fill="#52B636" transform="translate(469,220)"/>
<path d="M0 0 C2.64 0 5.28 0 8 0 C8 1.32 8 2.64 8 4 C9.423125 3.690625 9.423125 3.690625 10.875 3.375 C11.90625 3.25125 12.9375 3.1275 14 3 C19.12300574 8.12300574 17.15917265 20.07529911 17.25 27 C17.282146 28.39859253 17.282146 28.39859253 17.31494141 29.82543945 C17.31929199 30.70804443 17.32364258 31.59064941 17.328125 32.5 C17.34214355 33.69109375 17.34214355 33.69109375 17.35644531 34.90625 C16.90990102 37.52923893 16.12714332 38.44051821 14 40 C11.5 39.6875 11.5 39.6875 9 39 C6.05558108 38.87873219 6.05558108 38.87873219 3.5 39.625 C1 40 1 40 -2 38 C-2.804375 38.5878125 -2.804375 38.5878125 -3.625 39.1875 C-6 40 -6 40 -9.25 38.625 C-10.1575 38.08875 -11.065 37.5525 -12 37 C-12.33 37.99 -12.66 38.98 -13 40 C-17.75 39.25 -17.75 39.25 -20 37 C-20.46376812 29.69565217 -20.46376812 29.69565217 -18 26 C-14.9375 25.75 -14.9375 25.75 -12 26 C-11.67 26.33 -11.34 26.66 -11 27 C-10.67 25.02 -10.34 23.04 -10 21 C-12.91517292 22.07401108 -14.77810176 22.77810176 -17 25 C-19.625 25.125 -19.625 25.125 -22 25 C-21.875 23.125 -21.875 23.125 -21 21 C-17.9375 19.75 -17.9375 19.75 -15 19 C-15 18.34 -15 17.68 -15 17 C-13.60256682 16.07973913 -12.20295144 15.16263406 -10.79296875 14.26171875 C-5.468449 10.51483448 -1.4296278 6.51274886 0 0 Z M3 10 C2.67 10.99 2.34 11.98 2 13 C4.475 13.99 4.475 13.99 7 15 C7.33 13.68 7.66 12.36 8 11 C6.35 10.67 4.7 10.34 3 10 Z M-7 19 C-5.02 19.66 -3.04 20.32 -1 21 C-1 19.35 -1 17.7 -1 16 C-3.76223278 16 -4.89281454 17.31425163 -7 19 Z " fill="#4EAB36" transform="translate(248,225)"/>
<path d="M0 0 C3.7578125 0.44140625 3.7578125 0.44140625 6.453125 3.0390625 C7.28610752 4.17747195 8.09561637 5.33336868 8.8828125 6.50390625 C9.28628906 7.06529297 9.68976563 7.62667969 10.10546875 8.20507812 C11.34370298 9.93583683 12.55062596 11.68885088 13.7578125 13.44140625 C15.4078125 15.75140625 17.0578125 18.06140625 18.7578125 20.44140625 C18.7578125 14.17140625 18.7578125 7.90140625 18.7578125 1.44140625 C23.2128125 0.94640625 23.2128125 0.94640625 27.7578125 0.44140625 C28.7578125 1.44140625 28.7578125 1.44140625 28.87133789 4.95141602 C28.87117876 6.51189047 28.86548392 8.07237018 28.85546875 9.6328125 C28.8540538 10.45265121 28.85263885 11.27248993 28.85118103 12.11717224 C28.84556539 14.74612007 28.83301029 17.37498398 28.8203125 20.00390625 C28.81529951 21.78189982 28.81073626 23.55989471 28.80664062 25.33789062 C28.79559089 29.7057617 28.77831581 34.07356973 28.7578125 38.44140625 C25.0805253 39.66716865 23.4572502 39.60698251 19.7578125 38.44140625 C17.66492334 36.40659086 16.14635487 34.07533707 14.5703125 31.62890625 C13.72274052 30.37233899 12.87508638 29.11582714 12.02734375 27.859375 C11.66229736 27.30016357 11.29725098 26.74095215 10.92114258 26.16479492 C9.6012263 24.20943521 8.17330528 22.32872996 6.7578125 20.44140625 C6.4278125 26.38140625 6.0978125 32.32140625 5.7578125 38.44140625 C2.4578125 38.44140625 -0.8421875 38.44140625 -4.2421875 38.44140625 C-4.26683678 33.19035183 -4.28502318 27.9393308 -4.29711914 22.68823242 C-4.30215968 20.90046604 -4.30899204 19.1127038 -4.31762695 17.32495117 C-4.3297048 14.76089457 -4.33541844 12.19689228 -4.33984375 9.6328125 C-4.34500504 8.82864395 -4.35016632 8.0244754 -4.35548401 7.19593811 C-4.35567965 5.2773891 -4.30420733 3.35895257 -4.2421875 1.44140625 C-3.2421875 0.44140625 -3.2421875 0.44140625 0 0 Z " fill="#182C73" transform="translate(328.2421875,225.55859375)"/>
<path d="M0 0 C4.8686053 2.90243778 8.48224267 6.36002897 10.125 11.875 C10.16625 12.555625 10.2075 13.23625 10.25 13.9375 C6.16931839 15.10340903 4.00885425 14.91089848 0.25 12.9375 C-0.53375 12.23625 -1.3175 11.535 -2.125 10.8125 C-5.6217627 8.31481236 -7.53800014 8.26057145 -11.75 8.9375 C-15.0420147 11.37072826 -16.46494428 13.02532171 -17.6875 16.9375 C-17.77573821 21.1729339 -16.95447908 23.64380025 -14.0625 26.75 C-10.6399575 28.50752182 -8.55691406 28.5182157 -4.75 27.9375 C-2.90096457 26.49424836 -1.27812054 24.90421443 0.40625 23.2734375 C3.61100899 20.95134518 6.42725194 21.53510547 10.25 21.9375 C10.745 22.9275 10.745 22.9275 11.25 23.9375 C9.51676865 29.13719405 6.91386287 32.97992842 2.25 35.9375 C-3.61726003 38.6545533 -9.87506322 39.12830283 -16.1015625 37.21484375 C-21.23677455 34.83956777 -24.42049695 31.80845585 -26.828125 26.609375 C-28.86590662 20.70326218 -28.693224 14.18747617 -26.0625 8.5 C-20.35594584 -1.32572177 -10.26700226 -2.90898397 0 0 Z " fill="#182B6D" transform="translate(171.75,227.0625)"/>
<path d="M0 0 C0.721875 0.00257813 1.44375 0.00515625 2.1875 0.0078125 C2.909375 0.00523437 3.63125 0.00265625 4.375 0 C6.1875 0.1328125 6.1875 0.1328125 7.1875 1.1328125 C7.26021741 3.48594805 7.27120868 5.84114918 7.25 8.1953125 C7.24097656 9.48566406 7.23195312 10.77601563 7.22265625 12.10546875 C7.21105469 13.10449219 7.19945312 14.10351562 7.1875 15.1328125 C10.96261561 14.84318562 10.96261561 14.84318562 14.1875 13.1328125 C15.80785996 10.08550424 16.94323508 7.05332941 18.046875 3.78515625 C18.42328125 2.90988281 18.7996875 2.03460938 19.1875 1.1328125 C22.88168201 -0.0985815 25.3931261 0.48848486 29.1875 1.1328125 C28.53864843 5.12914831 27.28797236 8.54508882 25.6875 12.2578125 C22.90383242 17.48655525 22.90383242 17.48655525 22.90014648 22.92626953 C23.28243408 23.57450684 23.66472168 24.22274414 24.05859375 24.890625 C24.46787109 25.59832031 24.87714844 26.30601562 25.29882812 27.03515625 C25.73646484 27.76863281 26.17410156 28.50210938 26.625 29.2578125 C27.47943042 30.71783477 28.33237833 32.178726 29.18359375 33.640625 C29.75871704 34.60959717 29.75871704 34.60959717 30.34545898 35.59814453 C31.1875 37.1328125 31.1875 37.1328125 31.1875 38.1328125 C27.41557224 38.60843211 23.94111296 38.82009375 20.1875 38.1328125 C16.20638659 34.60768565 14.565252 29.14281976 13.1875 24.1328125 C11.2075 24.1328125 9.2275 24.1328125 7.1875 24.1328125 C7.1875 28.7528125 7.1875 33.3728125 7.1875 38.1328125 C0.5625 39.2578125 0.5625 39.2578125 -2.8125 38.1328125 C-2.83714928 32.88175808 -2.85533568 27.63073705 -2.86743164 22.37963867 C-2.87247218 20.59187229 -2.87930454 18.80411005 -2.88793945 17.01635742 C-2.9000173 14.45230082 -2.90573094 11.88829853 -2.91015625 9.32421875 C-2.91531754 8.5200502 -2.92047882 7.71588165 -2.92579651 6.88734436 C-2.92599215 4.96879535 -2.87451983 3.05035882 -2.8125 1.1328125 C-1.8125 0.1328125 -1.8125 0.1328125 0 0 Z " fill="#172D74" transform="translate(190.8125,225.8671875)"/>
<path d="M0 0 C0.721875 0.00257813 1.44375 0.00515625 2.1875 0.0078125 C2.909375 0.00523437 3.63125 0.00265625 4.375 0 C6.1875 0.1328125 6.1875 0.1328125 7.1875 1.1328125 C7.32111612 2.95006687 7.39098598 4.77208831 7.43359375 6.59375 C7.46646484 7.70492187 7.49933594 8.81609375 7.53320312 9.9609375 C7.59419644 12.31761544 7.65151316 14.67439152 7.70507812 17.03125 C7.75631836 18.701875 7.75631836 18.701875 7.80859375 20.40625 C7.8336499 21.43153809 7.85870605 22.45682617 7.88452148 23.51318359 C8.0127418 26.36405964 8.0127418 26.36405964 10.1875 29.1328125 C13.77107241 29.38297123 13.77107241 29.38297123 17.1875 29.1328125 C19.12647212 25.85356843 19.48075528 23.27748031 19.6015625 19.4921875 C19.64023438 18.42226562 19.67890625 17.35234375 19.71875 16.25 C19.7496875 15.13882813 19.780625 14.02765625 19.8125 12.8828125 C19.85117188 11.75617188 19.88984375 10.62953125 19.9296875 9.46875 C20.02387336 6.69026702 20.10949586 3.91178916 20.1875 1.1328125 C22.91997348 -0.23342424 25.16948902 0.0043865 28.1875 0.1328125 C30.94139164 2.88670414 29.47244749 11.11541864 29.5 14.8203125 C29.52900391 16.10099609 29.55800781 17.38167969 29.58789062 18.70117188 C29.66708716 30.4161669 29.66708716 30.4161669 25.1875 35.1328125 C21.50907337 38.54208596 18.64339922 39.4317139 13.75 39.6328125 C7.51541886 39.39530465 3.96411206 37.63176336 -0.6875 33.4453125 C-3.84035144 26.9644512 -2.9671844 18.20759553 -2.9375 11.1328125 C-2.94136719 10.18019531 -2.94523437 9.22757813 -2.94921875 8.24609375 C-2.94792969 7.34246094 -2.94664063 6.43882812 -2.9453125 5.5078125 C-2.94418457 4.69054687 -2.94305664 3.87328125 -2.94189453 3.03125 C-2.7700464 0.50994605 -2.52349074 0.18491096 0 0 Z " fill="#172B6F" transform="translate(91.8125,225.8671875)"/>
<path d="M0 0 C2.05078125 0.03255208 4.1015625 0.06510417 6.15234375 0.09765625 C6.93135054 1.57253471 7.70001434 3.05287624 8.46484375 4.53515625 C8.89410156 5.35886719 9.32335937 6.18257812 9.765625 7.03125 C11.20171081 10.20682003 12.27578901 13.38454234 13.34692383 16.69604492 C14.96681856 21.52626756 16.91966761 26.23379017 18.81054688 30.96289062 C19.11283203 31.72794922 19.41511719 32.49300781 19.7265625 33.28125 C20.00072998 33.96759521 20.27489746 34.65394043 20.55737305 35.36108398 C21.15234375 37.09765625 21.15234375 37.09765625 21.15234375 39.09765625 C18.18234375 39.09765625 15.21234375 39.09765625 12.15234375 39.09765625 C11.80558594 38.12570312 11.45882813 37.15375 11.1015625 36.15234375 C9.43026848 32.75368752 9.43026848 32.75368752 5.796875 32.29296875 C4.53230469 32.26976562 3.26773437 32.2465625 1.96484375 32.22265625 C0.69253906 32.18398438 -0.57976562 32.1453125 -1.890625 32.10546875 C-2.86644531 32.10289062 -3.84226562 32.1003125 -4.84765625 32.09765625 C-5.50765625 34.07765625 -6.16765625 36.05765625 -6.84765625 38.09765625 C-10.14765625 38.09765625 -13.44765625 38.09765625 -16.84765625 38.09765625 C-14.54041293 29.81826271 -11.49951946 21.97557609 -8.22265625 14.03515625 C-7.71447751 12.7885607 -7.20666267 11.54181673 -6.69921875 10.29492188 C-2.53405396 0.1339352 -2.53405396 0.1339352 0 0 Z M2.15234375 14.09765625 C1.45534823 15.55147522 0.77000509 17.01088578 0.08984375 18.47265625 C-0.29300781 19.28476563 -0.67585938 20.096875 -1.0703125 20.93359375 C-1.45509766 22.00480469 -1.45509766 22.00480469 -1.84765625 23.09765625 C-1.51765625 23.75765625 -1.18765625 24.41765625 -0.84765625 25.09765625 C1.46234375 25.09765625 3.77234375 25.09765625 6.15234375 25.09765625 C5.60128466 21.14839945 4.76299004 17.74845451 3.15234375 14.09765625 C2.82234375 14.09765625 2.49234375 14.09765625 2.15234375 14.09765625 Z " fill="#182D75" transform="translate(412.84765625,225.90234375)"/>
<path d="M0 0 C0.33 0.66 0.66 1.32 1 2 C2.175625 1.773125 3.35125 1.54625 4.5625 1.3125 C6.75390625 1.26953125 6.75390625 1.26953125 9 2 C11.88052941 5.37587278 13.9589963 9.07106788 16 13 C18.25370343 10.27232183 20.07383183 7.85507086 21.6875 4.6875 C24 2 24 2 26.25390625 1.62109375 C28.53227978 1.62465928 30.73755801 1.738949 33 2 C31.13687431 7.39117221 27.84978813 11.51338984 24.484375 16.0625 C22.70742049 18.83379845 22.70742049 18.83379845 23.4765625 21.45703125 C25.38417487 24.64127651 27.44816256 27.6841446 29.625 30.6875 C34 36.73332055 34 36.73332055 34 39 C30.45886604 39.70537678 27.50807896 39.95212012 24 39 C20.98300723 35.67547545 18.96966158 32.01758787 17 28 C14.736472 30.73393197 12.94636354 33.10933586 11.375 36.3125 C9 39 9 39 6.5234375 39.37890625 C3.98913402 39.37533681 1.52014266 39.25970936 -1 39 C1.99821332 33.38829984 5.17682092 28.19160651 9.05859375 23.140625 C10.25716888 21.00385127 10.25716888 21.00385127 9.41796875 18.61328125 C7.16364781 14.45862364 4.40953181 10.69174151 1.6796875 6.83984375 C0 4 0 4 0 0 Z " fill="#15316C" transform="translate(437,225)"/>
<path d="M0 0 C3.81248426 -0.02887236 7.6249407 -0.04675492 11.4375 -0.0625 C12.52611328 -0.07087891 13.61472656 -0.07925781 14.73632812 -0.08789062 C15.77080078 -0.09111328 16.80527344 -0.09433594 17.87109375 -0.09765625 C18.82943115 -0.10289307 19.78776855 -0.10812988 20.77514648 -0.11352539 C23 0 23 0 24 1 C24.14115161 3.67058851 24.04247107 6.32432238 24 9 C19.38 9.33 14.76 9.66 10 10 C9.67 12.31 9.34 14.62 9 17 C13.29 17 17.58 17 22 17 C22 19.97 22 22.94 22 26 C17.71 26 13.42 26 9 26 C9 29.96 9 33.92 9 38 C6.36 38.33 3.72 38.66 1 39 C-1.30876996 35.3443999 -1.24445 32.2300153 -1.23046875 27.96875 C-1.23001053 27.29581909 -1.22955231 26.62288818 -1.2290802 25.92956543 C-1.22606738 24.51080556 -1.21821016 23.09204872 -1.20581055 21.67333984 C-1.18756207 19.50736711 -1.18530101 17.34182284 -1.18554688 15.17578125 C-1.14452703 3.64878641 -1.14452703 3.64878641 0 0 Z " fill="#182C70" transform="translate(278,226)"/>
<path d="M0 0 C5.43675945 4.59104132 8.41586227 9.99173717 9.23828125 17.04296875 C9.45226181 23.22588081 7.84405067 27.57139233 5 33 C4.33241268 34.33287261 3.66546736 35.66606769 3 37 C2.01 37 1.02 37 0 37 C-1.25 34.5 -1.25 34.5 -2 31 C-1.16361065 28.90471535 -0.08523293 27.05587469 1.0390625 25.1015625 C2.60790709 21.67051214 2.26559637 18.71834912 2 15 C1.34 14.67 0.68 14.34 0 14 C0.165 13.113125 0.33 12.22625 0.5 11.3125 C0.36335968 8.00103834 0.36335968 8.00103834 -1.67578125 6.5234375 C-7.14242156 3.10553807 -11.43423817 1.4618228 -18 2 C-20.16677044 2.87465963 -22.16358145 3.88927845 -24.203125 5.02734375 C-26 6 -26 6 -29 7 C-29.33 8.98 -29.66 10.96 -30 13 C-30.66 13 -31.32 13 -32 13 C-32.15304509 16.74960478 -32.07133336 19.75924991 -31 23.375 C-29.80718571 27.69895179 -29.81841174 31.55108753 -30 36 C-34.66584472 31.83857092 -37.52812327 27.95600767 -38.28515625 21.609375 C-38.53303452 14.58256501 -36.98762965 9.28723366 -33.375 3.3125 C-23.71449178 -6.09378432 -11.24501075 -7.33263283 0 0 Z " fill="#182B5A" transform="translate(70,225)"/>
<path d="M0 0 C0.65972305 -0.00095673 1.31944611 -0.00191345 1.99916077 -0.00289917 C3.39714656 -0.00358086 4.79513549 -0.00172736 6.19311523 0.00244141 C8.33519607 0.00778144 10.47706642 0.00250051 12.61914062 -0.00390625 C13.97526088 -0.0032453 15.33138101 -0.00196379 16.6875 0 C17.92749756 0.00112793 19.16749512 0.00225586 20.44506836 0.00341797 C23.41015625 0.1328125 23.41015625 0.1328125 25.41015625 1.1328125 C25.5078125 7.28515625 25.5078125 7.28515625 25.41015625 9.1328125 C25.08015625 9.4628125 24.75015625 9.7928125 24.41015625 10.1328125 C20.78015625 10.1328125 17.15015625 10.1328125 13.41015625 10.1328125 C13.41015625 19.3728125 13.41015625 28.6128125 13.41015625 38.1328125 C7.41015625 39.1328125 7.41015625 39.1328125 4.41015625 38.1328125 C4.08015625 29.2228125 3.75015625 20.3128125 3.41015625 11.1328125 C0.11015625 10.8028125 -3.18984375 10.4728125 -6.58984375 10.1328125 C-7.58984375 9.1328125 -7.58984375 9.1328125 -7.72265625 7.3203125 C-7.72007812 6.5984375 -7.7175 5.8765625 -7.71484375 5.1328125 C-7.71742188 4.4109375 -7.72 3.6890625 -7.72265625 2.9453125 C-7.410056 -1.32076152 -3.42767661 0.00312073 0 0 Z " fill="#192C72" transform="translate(369.58984375,225.8671875)"/>
<path d="M0 0 C0.99 0 1.98 0 3 0 C2.48964169 4.3890815 1.47785723 7.33708062 -1 11 C-0.34 11 0.32 11 1 11 C1.33 12.65 1.66 14.3 2 16 C2.99 16.33 3.98 16.66 5 17 C5 17.66 5 18.32 5 19 C4.34 19.33 3.68 19.66 3 20 C3.66 20.33 4.32 20.66 5 21 C4.67 21.99 4.34 22.98 4 24 C3.93334624 25.39439664 3.91461801 26.79169875 3.9375 28.1875 C3.958125 29.445625 3.97875 30.70375 4 32 C2.02 32.99 0.04 33.98 -2 35 C-2 34.34 -2 33.68 -2 33 C-3.65 34.65 -5.3 36.3 -7 38 C-12.75 36.125 -12.75 36.125 -15 35 C-15.33 35.99 -15.66 36.98 -16 38 C-20.75 37.25 -20.75 37.25 -23 35 C-23.46376812 27.69565217 -23.46376812 27.69565217 -21 24 C-18.0625 23.625 -18.0625 23.625 -15 24 C-13.125 25.5 -13.125 25.5 -12 27 C-12 24.69 -12 22.38 -12 20 C-9.69 19.34 -7.38 18.68 -5 18 C-5 17.34 -5 16.68 -5 16 C-4.34 16 -3.68 16 -3 16 C-3 14.68 -3 13.36 -3 12 C-4.65 12.33 -6.3 12.66 -8 13 C-8 9.06368636 -6.57142871 7.87394974 -4 5 C-3.34 4.67 -2.68 4.34 -2 4 C-0.86649466 1.98330173 -0.86649466 1.98330173 0 0 Z " fill="#50AD37" transform="translate(251,227)"/>
<path d="M0 0 C1.68711423 1.6459651 3.3545622 3.31237149 5 5 C5.825 5.66 6.65 6.32 7.5 7 C10.2100065 9.1680052 12.57721501 11.51664538 15 14 C15.9075 14.845625 16.815 15.69125 17.75 16.5625 C19.88232611 18.87251995 20.66021092 19.94189832 21 23 C20.505 22.01 20.505 22.01 20 21 C19.34 21 18.68 21 18 21 C17.505 20.01 17.505 20.01 17 19 C16.175 18.525625 15.35 18.05125 14.5 17.5625 C12 16 12 16 11 13 C10.01 12.67 9.02 12.34 8 12 C7.34 11.01 6.68 10.02 6 9 C5.01 9 4.02 9 3 9 C2.67 9.99 2.34 10.98 2 12 C-0.0625 13.1875 -0.0625 13.1875 -2 14 C-0.125 9.25 -0.125 9.25 1 7 C-1.97 7 -4.94 7 -8 7 C-8.226875 7.680625 -8.45375 8.36125 -8.6875 9.0625 C-10.35572357 12.79614324 -12.55729608 15.72163421 -15 19 C-17.38883198 16.82335653 -18.7242282 14.73815276 -20.1875 11.875 C-22.01063371 8.81437781 -22.01063371 8.81437781 -25.1015625 7.2578125 C-27.55196074 6.92881712 -27.55196074 6.92881712 -31 7 C-30.65598287 4.05600726 -30.02683744 3.02678774 -27.890625 0.89453125 C-27.01921875 0.20746094 -26.1478125 -0.47960937 -25.25 -1.1875 C-24.38890625 -1.88230469 -23.5278125 -2.57710937 -22.640625 -3.29296875 C-15.04829935 -8.20102542 -6.6352554 -5.27804406 0 0 Z " fill="#51B635" transform="translate(469,220)"/>
<path d="M0 0 C2.97 0.33 5.94 0.66 9 1 C9 13.21 9 25.42 9 38 C2 39 2 39 -1 38 C-1.02464928 32.74894558 -1.04283568 27.49792455 -1.05493164 22.24682617 C-1.05997218 20.45905979 -1.06680454 18.67129755 -1.07543945 16.88354492 C-1.0875173 14.31948832 -1.09323094 11.75548603 -1.09765625 9.19140625 C-1.10281754 8.3872377 -1.10797882 7.58306915 -1.11329651 6.75453186 C-1.11349215 4.83598285 -1.06201983 2.91754632 -1 1 C-0.67 0.67 -0.34 0.34 0 0 Z " fill="#172D76" transform="translate(308,226)"/>
<path d="M0 0 C2.64 0 5.28 0 8 0 C8 12.54 8 25.08 8 38 C5.03 38 2.06 38 -1 38 C-1.02464928 32.74894558 -1.04283568 27.49792455 -1.05493164 22.24682617 C-1.05997218 20.45905979 -1.06680454 18.67129755 -1.07543945 16.88354492 C-1.0875173 14.31948832 -1.09323094 11.75548603 -1.09765625 9.19140625 C-1.10281754 8.3872377 -1.10797882 7.58306915 -1.11329651 6.75453186 C-1.11349215 4.83598285 -1.06201983 2.91754632 -1 1 C-0.67 0.67 -0.34 0.34 0 0 Z " fill="#172D72" transform="translate(130,226)"/>
<path d="M0 0 C0.62109375 1.88671875 0.62109375 1.88671875 1 4 C0.360625 4.598125 -0.27875 5.19625 -0.9375 5.8125 C-3.39637818 7.95577873 -3.39637818 7.95577873 -3.25 11.75 C-3.12625 13.35875 -3.12625 13.35875 -3 15 C-2.01 15 -1.02 15 0 15 C3 20.625 3 20.625 3 24 C4.32 24 5.64 24 7 24 C7.66 24.99 8.32 25.98 9 27 C9.66 26.34 10.32 25.68 11 25 C11.99 25 12.98 25 14 25 C13.70069448 28.31538419 13.30868678 29.69817293 10.890625 32.0625 C10.01921875 32.701875 9.1478125 33.34125 8.25 34 C3.98503714 37.2093737 3.98503714 37.2093737 0.125 40.875 C-3.19329736 44.19329736 -6.07521627 45.32134584 -10.75 45.5 C-16.64824974 45.38707327 -19.82917677 42.94887255 -24 39 C-24.52980469 38.50113281 -25.05960937 38.00226563 -25.60546875 37.48828125 C-26.765636 36.35411214 -27.88803351 35.1814644 -29 34 C-24.50440894 34 -22.14688605 36.70122699 -18.66796875 39.37109375 C-15.71833825 41.17196625 -13.41158271 41.6463907 -10 42 C-9.34 40.68 -8.68 39.36 -8 38 C-6.68 38 -5.36 38 -4 38 C-4 37.34 -4 36.68 -4 36 C-5.32 36 -6.64 36 -8 36 C-8 35.34 -8 34.68 -8 34 C-4.80097361 33.91113816 -2.07322544 34.08941469 1 35 C1 34.34 1 33.68 1 33 C-0.98 32.34 -2.96 31.68 -5 31 C-5 30.67 -5 30.34 -5 30 C-1.7 30 1.6 30 5 30 C4.11054688 28.75863281 3.22109375 27.51726562 2.3046875 26.23828125 C1.16049679 24.59702408 0.01731992 22.95505979 -1.125 21.3125 C-1.71410156 20.49587891 -2.30320312 19.67925781 -2.91015625 18.83789062 C-3.45800781 18.04189453 -4.00585938 17.24589844 -4.5703125 16.42578125 C-5.08352051 15.69786377 -5.59672852 14.96994629 -6.12548828 14.2199707 C-7 12 -7 12 -6.23242188 9.34960938 C-4.45246168 5.95611949 -2.28906429 3.07216524 0 0 Z " fill="#57B241" transform="translate(466,234)"/>
<path d="M0 0 C1.32 0.33 2.64 0.66 4 1 C4 4 4 4 2.5 5.6875 C2.005 6.120625 1.51 6.55375 1 7 C2.32 6.34 3.64 5.68 5 5 C6.0828125 5.928125 6.0828125 5.928125 7.1875 6.875 C9.78381938 8.83666353 11.94671666 9.95316 15 11 C15 11.66 15 12.32 15 13 C11.23375329 14.25541557 9.62811066 13.37061958 6 12 C6 12.66 6 13.32 6 14 C7.32 14 8.64 14 10 14 C10 14.66 10 15.32 10 16 C8.68 16 7.36 16 6 16 C5.896875 16.639375 5.79375 17.27875 5.6875 17.9375 C5.460625 18.618125 5.23375 19.29875 5 20 C1.54637977 21.15120674 0.33408926 20.64434912 -2.8828125 19.16015625 C-7.14979567 16.82197544 -11.26414243 14.11947865 -15 11 C-15 10.34 -15 9.68 -15 9 C-14.09507812 9.10441406 -14.09507812 9.10441406 -13.171875 9.2109375 C-10.66286534 9.38090267 -8.48059793 9.43699653 -6 9 C-3.50459629 6.13384514 -3.50459629 6.13384514 -2 3 C-1.34 3 -0.68 3 0 3 C0 2.01 0 1.02 0 0 Z " fill="#51B635" transform="translate(452,256)"/>
<path d="M0 0 C2.2109885 0.42793326 3.98119242 0.99059621 6 2 C6 2.66 6 3.32 6 4 C6.66 4 7.32 4 8 4 C9.625 6.5 9.625 6.5 11 9 C9.71937515 10.7074998 8.38232443 12.37373596 7 14 C6.34 14 5.68 14 5 14 C5 20.93 5 27.86 5 35 C3.02 35 1.04 35 -1 35 C-1.0246519 30.17619198 -1.04283693 25.35242033 -1.05493164 20.52856445 C-1.05997174 18.88630536 -1.06680378 17.24405077 -1.07543945 15.60180664 C-1.08751926 13.24624521 -1.09323139 10.89074291 -1.09765625 8.53515625 C-1.10281754 7.79660904 -1.10797882 7.05806183 -1.11329651 6.2971344 C-1.1134925 4.53101912 -1.06194719 2.76502854 -1 1 C-0.67 0.67 -0.34 0.34 0 0 Z " fill="#172D74" transform="translate(327,228)"/>
<path d="M0 0 C3 1 3 1 4 3 C4.06996014 4.70702735 4.08440154 6.41668003 4.0625 8.125 C4.05347656 9.03507813 4.04445312 9.94515625 4.03515625 10.8828125 C4.02355469 11.58148438 4.01195312 12.28015625 4 13 C8.10223585 14.01540112 8.10223585 14.01540112 12 13 C12.66 13.33 13.32 13.66 14 14 C13.67 14.66 13.34 15.32 13 16 C12.67 16.99 12.34 17.98 12 19 C8.04 19.495 8.04 19.495 4 20 C4 24.29 4 28.58 4 33 C2.02 33 0.04 33 -2 33 C-2 22.44 -2 11.88 -2 1 C-1.34 0.67 -0.68 0.34 0 0 Z " fill="#172E75" transform="translate(192,229)"/>
<path d="M0 0 C0.721875 0.00257813 1.44375 0.00515625 2.1875 0.0078125 C2.909375 0.00523437 3.63125 0.00265625 4.375 0 C6.1875 0.1328125 6.1875 0.1328125 7.1875 1.1328125 C7.26021741 3.48594805 7.27120868 5.84114918 7.25 8.1953125 C7.24097656 9.48566406 7.23195312 10.77601563 7.22265625 12.10546875 C7.21105469 13.10449219 7.19945312 14.10351562 7.1875 15.1328125 C9.8275 14.4728125 12.4675 13.8128125 15.1875 13.1328125 C15.1875 14.4528125 15.1875 15.7728125 15.1875 17.1328125 C11.13318308 18.29118876 8.96937881 17.96972507 5.1875 16.1328125 C5.12691406 15.43414062 5.06632813 14.73546875 5.00390625 14.015625 C4.92011719 13.10554687 4.83632812 12.19546875 4.75 11.2578125 C4.66878906 10.35289062 4.58757812 9.44796875 4.50390625 8.515625 C4.31760715 6.12170389 4.31760715 6.12170389 3.1875 4.1328125 C1.8675 4.1328125 0.5475 4.1328125 -0.8125 4.1328125 C-0.8125 14.6928125 -0.8125 25.2528125 -0.8125 36.1328125 C1.1675 36.1328125 3.1475 36.1328125 5.1875 36.1328125 C5.10371094 35.20597656 5.01992187 34.27914062 4.93359375 33.32421875 C4.78083984 31.52791016 4.78083984 31.52791016 4.625 29.6953125 C4.52058594 28.50035156 4.41617188 27.30539063 4.30859375 26.07421875 C4.26863281 25.10355469 4.22867188 24.13289063 4.1875 23.1328125 C5.1875 22.1328125 5.1875 22.1328125 9 21.8828125 C11.64628143 21.93488602 13.11490954 22.10033782 15.5625 23.1953125 C17.90311276 25.9860431 18.5031918 28.58685184 19.1875 32.1328125 C18.73046875 34.35546875 18.73046875 34.35546875 18.1875 36.1328125 C17.34930842 34.51031309 16.5170884 32.88472753 15.6875 31.2578125 C15.2234375 30.35289062 14.759375 29.44796875 14.28125 28.515625 C13.1875 26.1328125 13.1875 26.1328125 13.1875 24.1328125 C11.2075 24.1328125 9.2275 24.1328125 7.1875 24.1328125 C7.1875 28.7528125 7.1875 33.3728125 7.1875 38.1328125 C0.5625 39.2578125 0.5625 39.2578125 -2.8125 38.1328125 C-2.83714928 32.88175808 -2.85533568 27.63073705 -2.86743164 22.37963867 C-2.87247218 20.59187229 -2.87930454 18.80411005 -2.88793945 17.01635742 C-2.9000173 14.45230082 -2.90573094 11.88829853 -2.91015625 9.32421875 C-2.91531754 8.5200502 -2.92047882 7.71588165 -2.92579651 6.88734436 C-2.92599215 4.96879535 -2.87451983 3.05035882 -2.8125 1.1328125 C-1.8125 0.1328125 -1.8125 0.1328125 0 0 Z " fill="#18275D" transform="translate(190.8125,225.8671875)"/>
<path d="M0 0 C3.765625 0.453125 3.765625 0.453125 6.53125 3.15625 C7.38245702 4.32203352 8.21020288 5.50525197 9.015625 6.703125 C9.64597656 7.58291016 9.64597656 7.58291016 10.2890625 8.48046875 C11.46495439 10.12597784 12.61608233 11.7891017 13.765625 13.453125 C14.37921875 14.19046875 14.9928125 14.9278125 15.625 15.6875 C16.00140625 16.27015625 16.3778125 16.8528125 16.765625 17.453125 C16.435625 18.443125 16.105625 19.433125 15.765625 20.453125 C15.518125 19.81375 15.270625 19.174375 15.015625 18.515625 C13.95000067 16.26570959 13.95000067 16.26570959 11.640625 15.703125 C11.021875 15.620625 10.403125 15.538125 9.765625 15.453125 C9.765625 16.773125 9.765625 18.093125 9.765625 19.453125 C10.425625 19.783125 11.085625 20.113125 11.765625 20.453125 C11.765625 21.443125 11.765625 22.433125 11.765625 23.453125 C12.425625 23.783125 13.085625 24.113125 13.765625 24.453125 C14.390625 26.515625 14.390625 26.515625 14.765625 28.453125 C11.765625 27.453125 11.765625 27.453125 6.765625 20.453125 C6.435625 26.393125 6.105625 32.333125 5.765625 38.453125 C2.465625 38.453125 -0.834375 38.453125 -4.234375 38.453125 C-4.25902428 33.20207058 -4.27721068 27.95104955 -4.28930664 22.69995117 C-4.29434718 20.91218479 -4.30117954 19.12442255 -4.30981445 17.33666992 C-4.3218923 14.77261332 -4.32760594 12.20861103 -4.33203125 9.64453125 C-4.33719254 8.8403627 -4.34235382 8.03619415 -4.34767151 7.20765686 C-4.34786715 5.28910785 -4.29639483 3.37067132 -4.234375 1.453125 C-3.234375 0.453125 -3.234375 0.453125 0 0 Z M-1.234375 2.453125 C-2.60754588 3.59900601 -2.60754588 3.59900601 -2.34790039 6.68774414 C-2.34774131 8.12126626 -2.34204907 9.55479412 -2.33203125 10.98828125 C-2.3306163 11.74153183 -2.32920135 12.49478241 -2.32774353 13.27085876 C-2.32212876 15.6858206 -2.30957383 18.10069101 -2.296875 20.515625 C-2.2918619 22.14908721 -2.28729866 23.78255086 -2.28320312 25.41601562 C-2.27215454 29.42842085 -2.25488006 33.44075741 -2.234375 37.453125 C-0.254375 37.453125 1.725625 37.453125 3.765625 37.453125 C3.765625 30.523125 3.765625 23.593125 3.765625 16.453125 C5.085625 15.793125 6.405625 15.133125 7.765625 14.453125 C9.03367066 12.4195302 9.03367066 12.4195302 9.765625 10.453125 C8.40238757 8.4131531 8.40238757 8.4131531 6.765625 6.453125 C6.105625 6.453125 5.445625 6.453125 4.765625 6.453125 C4.765625 5.793125 4.765625 5.133125 4.765625 4.453125 C1.95052507 2.1757749 1.95052507 2.1757749 -1.234375 2.453125 Z " fill="#18275B" transform="translate(328.234375,225.546875)"/>
<path d="M0 0 C-1.26249623 3.7874887 -2.95688505 4.15168182 -6.34375 5.94921875 C-8.4471482 7.28368601 -9.24342712 8.64621769 -10 11 C-8.02 11 -6.04 11 -4 11 C-3.67 11.99 -3.34 12.98 -3 14 C-2.34 14 -1.68 14 -1 14 C1 17 1 17 1 20 C1.99 20 2.98 20 4 20 C4.061875 19.278125 4.12375 18.55625 4.1875 17.8125 C5.2859871 14.01004466 6.89432732 12.41552319 10 10 C13.3125 9.6875 13.3125 9.6875 16 10 C14.19587357 6.73539027 13.16605307 5.11070205 10 3 C10 2.34 10 1.68 10 1 C14.51005568 2.41744607 16.72985291 4.65380298 20 8 C21.31804049 9.02007207 22.65254395 10.01911267 24 11 C27.30939541 13.42771784 30.16847395 16.01541849 33 19 C33.9075 19.845625 34.815 20.69125 35.75 21.5625 C37.88232611 23.87251995 38.66021092 24.94189832 39 28 C38.505 27.01 38.505 27.01 38 26 C37.34 26 36.68 26 36 26 C35.505 25.01 35.505 25.01 35 24 C34.175 23.525625 33.35 23.05125 32.5 22.5625 C30 21 30 21 29 18 C28.01 17.67 27.02 17.34 26 17 C25.34 16.01 24.68 15.02 24 14 C23.01 14 22.02 14 21 14 C20.67 14.99 20.34 15.98 20 17 C17.9375 18.1875 17.9375 18.1875 16 19 C17.875 14.25 17.875 14.25 19 12 C16.03 12 13.06 12 10 12 C9.773125 12.680625 9.54625 13.36125 9.3125 14.0625 C7.64427643 17.79614324 5.44270392 20.72163421 3 24 C0.61116802 21.82335653 -0.7242282 19.73815276 -2.1875 16.875 C-4.01063371 13.81437781 -4.01063371 13.81437781 -7.1015625 12.2578125 C-9.55196074 11.92881712 -9.55196074 11.92881712 -13 12 C-12.66700329 8.98264206 -12.01183726 8.01144059 -9.78515625 5.859375 C-8.88667969 5.16328125 -7.98820312 4.4671875 -7.0625 3.75 C-6.16660156 3.04359375 -5.27070313 2.3371875 -4.34765625 1.609375 C-2 0 -2 0 0 0 Z " fill="#65A258" transform="translate(451,215)"/>
<path d="M0 0 C4.48115095 1.40836173 6.79160213 3.63118224 10 7 C11.64864545 8.35555293 13.31003995 9.69631653 15 11 C14.67 11.99 14.34 12.98 14 14 C11.125 14.125 11.125 14.125 8 14 C7.34 13.34 6.68 12.68 6 12 C3.55769875 12.01835967 3.55769875 12.01835967 0.8125 12.4375 C-5.09159638 13.09436936 -10.27574652 12.60279097 -16 11 C-15.34 9.02 -14.68 7.04 -14 5 C-8.06 5.99 -8.06 5.99 -2 7 C-2.33 5.68 -2.66 4.36 -3 3 C-2.34 3 -1.68 3 -1 3 C-0.67 2.01 -0.34 1.02 0 0 Z " fill="#1C2F66" transform="translate(60,255)"/>
<path d="M0 0 C2.64 0 5.28 0 8 0 C8.33 2.31 8.66 4.62 9 7 C8.34 7 7.68 7 7 7 C7 7.99 7 8.98 7 10 C6.01 10.33 5.02 10.66 4 11 C3.67 10.01 3.34 9.02 3 8 C3.66 8 4.32 8 5 8 C5.33 6.02 5.66 4.04 6 2 C2.88667752 2.66868314 2.88667752 2.66868314 1.8125 5.0625 C1.544375 5.701875 1.27625 6.34125 1 7 C0.34 7 -0.32 7 -1 7 C-1.433125 7.8971875 -1.433125 7.8971875 -1.875 8.8125 C-3 11 -3 11 -5 14 C-2.525 14.495 -2.525 14.495 0 15 C0 15.99 0 16.98 0 18 C-0.99 17.67 -1.98 17.34 -3 17 C-3.99 17.66 -4.98 18.32 -6 19 C-5.01 19.33 -4.02 19.66 -3 20 C-3.33 20.66 -3.66 21.32 -4 22 C-5.32 22 -6.64 22 -8 22 C-8.33 24.31 -8.66 26.62 -9 29 C-9.66 28.34 -10.32 27.68 -11 27 C-10.625 23.875 -10.625 23.875 -10 21 C-12.91517292 22.07401108 -14.77810176 22.77810176 -17 25 C-19.625 25.125 -19.625 25.125 -22 25 C-21.875 23.125 -21.875 23.125 -21 21 C-17.9375 19.75 -17.9375 19.75 -15 19 C-15 18.34 -15 17.68 -15 17 C-13.60256682 16.07973913 -12.20295144 15.16263406 -10.79296875 14.26171875 C-5.468449 10.51483448 -1.4296278 6.51274886 0 0 Z " fill="#6A9E58" transform="translate(248,225)"/>
<path d="M0 0 C2.40057837 2.90490155 3.61493607 5.4003708 4.6875 9 C6.87839177 15.92493634 9.59719926 22.60496911 12.3581543 29.3203125 C12.69886963 30.155625 13.03958496 30.9909375 13.390625 31.8515625 C13.70032227 32.60260254 14.01001953 33.35364258 14.32910156 34.12744141 C15 36 15 36 15 38 C14.34 38 13.68 38 13 38 C12.67 36.02 12.34 34.04 12 32 C11.34 32 10.68 32 10 32 C9.67 32.66 9.34 33.32 9 34 C8.34 29.38 7.68 24.76 7 20 C6.01 19.67 5.02 19.34 4 19 C4 18.01 4 17.02 4 16 C2.68 16.33 1.36 16.66 0 17 C0.66 18.98 1.32 20.96 2 23 C0.75 24.5 0.75 24.5 -1 26 C-2.32 26 -3.64 26 -5 26 C-5 25.34 -5 24.68 -5 24 C-5.66 23.67 -6.32 23.34 -7 23 C-5.02 23 -3.04 23 -1 23 C-1.99 20.03 -2.98 17.06 -4 14 C-4.39832031 14.95712891 -4.39832031 14.95712891 -4.8046875 15.93359375 C-5.15789062 16.75988281 -5.51109375 17.58617187 -5.875 18.4375 C-6.39707031 19.67306641 -6.39707031 19.67306641 -6.9296875 20.93359375 C-8 23 -8 23 -10 24 C-10.37086093 17.44812362 -10.37086093 17.44812362 -8.5 15.1875 C-8.005 14.795625 -7.51 14.40375 -7 14 C-7 13.34 -7 12.68 -7 12 C-4.03 11.34 -1.06 10.68 2 10 C1.505 8.63875 1.505 8.63875 1 7.25 C0 4 0 4 0 0 Z " fill="#172D67" transform="translate(419,227)"/>
<path d="M0 0 C2.39954544 3.73631643 2.22993687 7.02795498 2.1953125 11.390625 C2.1924826 12.09523865 2.18965271 12.79985229 2.18673706 13.52581787 C2.17557801 15.7673876 2.15048193 18.00855186 2.125 20.25 C2.11496464 21.77343171 2.10583976 23.29686971 2.09765625 24.8203125 C2.07565291 28.54700586 2.04115272 32.27346333 2 36 C3.65 36.33 5.3 36.66 7 37 C7 25.45 7 13.9 7 2 C5.35 2 3.7 2 2 2 C2 1.67 2 1.34 2 1 C4.31 1 6.62 1 9 1 C9 13.21 9 25.42 9 38 C2 39 2 39 -1 38 C-1.02464928 32.74894558 -1.04283568 27.49792455 -1.05493164 22.24682617 C-1.05997218 20.45905979 -1.06680454 18.67129755 -1.07543945 16.88354492 C-1.0875173 14.31948832 -1.09323094 11.75548603 -1.09765625 9.19140625 C-1.10281754 8.3872377 -1.10797882 7.58306915 -1.11329651 6.75453186 C-1.11349215 4.83598285 -1.06201983 2.91754632 -1 1 C-0.67 0.67 -0.34 0.34 0 0 Z " fill="#182555" transform="translate(308,226)"/>
<path d="M0 0 C2.97 0.495 2.97 0.495 6 1 C5.98839844 1.59683594 5.97679688 2.19367188 5.96484375 2.80859375 C5.91742591 7.36748051 5.96150052 11.86739462 6.36328125 16.41015625 C6.42588135 17.16820557 6.48848145 17.92625488 6.55297852 18.70727539 C6.68317677 20.22238298 6.83051254 21.7361261 6.99584961 23.24780273 C7.171875 25.375 7.171875 25.375 7 29 C5.015625 31 5.015625 31 3 32 C1.68 31.34 0.36 30.68 -1 30 C-0.67 29.34 -0.34 28.68 0 28 C0.08543895 25.89471067 0.10714725 23.78668843 0.09765625 21.6796875 C0.09443359 20.42285156 0.09121094 19.16601562 0.08789062 17.87109375 C0.07951172 16.55238281 0.07113281 15.23367187 0.0625 13.875 C0.05748489 12.53515789 0.05292201 11.195314 0.04882812 9.85546875 C0.03701086 6.57026794 0.02053617 3.28515603 0 0 Z " fill="#172D76" transform="translate(113,228)"/>
<path d="M0 0 C3.125 -0.1875 3.125 -0.1875 6 0 C7.41930621 2.64937159 8.3391146 5.07322179 9 8 C9.33 8.99 9.66 9.98 10 11 C10.99 10.67 11.98 10.34 13 10 C13 9.01 13 8.02 13 7 C13.95653635 4.6485148 14.95281202 2.31254012 16 0 C17.71355038 5.14065113 16.06320331 9.18585895 14 14 C8.25 12.125 8.25 12.125 6 11 C5.67 11.99 5.34 12.98 5 14 C0.25 13.25 0.25 13.25 -2 11 C-2.46376812 3.69565217 -2.46376812 3.69565217 0 0 Z " fill="#62A053" transform="translate(230,251)"/>
<path d="M0 0 C0.33 0.66 0.66 1.32 1 2 C2.7325 1.62875 2.7325 1.62875 4.5 1.25 C6.6875 1.203125 6.6875 1.203125 9 2 C12.19893662 5.69606867 14.61771364 9.74229672 17 14 C15.0625 14.5625 15.0625 14.5625 13 15 C12.67 14.67 12.34 14.34 12 14 C12 17.41099168 12.49145406 20.63088314 13 24 C12.01 24.33 11.02 24.66 10 25 C8.62804426 26.29355827 7.28817344 27.62298702 6 29 C8 24 8 24 9.3046875 21.70703125 C10.34522039 18.87626971 10.34522039 18.87626971 8.515625 15.9921875 C7.76796875 14.96351563 7.0203125 13.93484375 6.25 12.875 C5.51265625 11.84117187 4.7753125 10.80734375 4.015625 9.7421875 C3.35046875 8.83726562 2.6853125 7.93234375 2 7 C0 4 0 4 0 0 Z " fill="#143E51" transform="translate(437,225)"/>
<path d="M0 0 C2 2 2 2 2.22705078 4.43017578 C2.21134033 5.92266846 2.21134033 5.92266846 2.1953125 7.4453125 C2.18564453 9.05986328 2.18564453 9.05986328 2.17578125 10.70703125 C2.15902344 11.83496094 2.14226562 12.96289062 2.125 14.125 C2.11597656 15.26066406 2.10695313 16.39632812 2.09765625 17.56640625 C2.07403098 20.37781299 2.04109013 23.18880298 2 26 C0.02 25.34 -1.96 24.68 -4 24 C-4 16.74 -4 9.48 -4 2 C-4.66 1.67 -5.32 1.34 -6 1 C-3.125 0.375 -3.125 0.375 0 0 Z " fill="#162D74" transform="translate(379,237)"/>
<path d="M0 0 C0.99 0.33 1.98 0.66 3 1 C6.56348232 2.11456936 9.90247112 2.133403 13.625 2.125 C14.77226563 2.12757813 15.91953125 2.13015625 17.1015625 2.1328125 C19.93976044 2.19920447 19.93976044 2.19920447 22 1 C22 1.66 22 2.32 22 3 C22.99 2.67 23.98 2.34 25 2 C25.6875 3.8125 25.6875 3.8125 26 6 C24.984375 7.6171875 24.984375 7.6171875 23 9 C20.42394807 9.27255157 18.12941813 9.37402728 15.5625 9.3125 C14.24378906 9.30863281 12.92507812 9.30476562 11.56640625 9.30078125 C8.27929473 9.02355498 6.72536726 8.6922215 4 7 C3.29359375 6.64679688 2.5871875 6.29359375 1.859375 5.9296875 C-0.09375 4.953125 -2.046875 3.9765625 -4 3 C-2.1875 1.4375 -2.1875 1.4375 0 0 Z " fill="#529548" transform="translate(45,230)"/>
<path d="M0 0 C4.65046812 1.46856888 4.65046812 1.46856888 6.1484375 3.74609375 C8.57156609 10.15960382 7.21475957 17.72484788 5 24 C4.443125 25.7015625 4.443125 25.7015625 3.875 27.4375 C3.58625 28.283125 3.2975 29.12875 3 30 C2.01 30 1.02 30 0 30 C-1.25 27.5 -1.25 27.5 -2 24 C-1.16361065 21.90471535 -0.08523293 20.05587469 1.0390625 18.1015625 C2.60790709 14.67051214 2.26559637 11.71834912 2 8 C1.34 7.67 0.68 7.34 0 7 C0 4.69 0 2.38 0 0 Z " fill="#192C5D" transform="translate(70,232)"/>
<path d="M0 0 C0.33 0 0.66 0 1 0 C1.02505615 0.60996826 1.0501123 1.21993652 1.07592773 1.84838867 C1.1924058 4.62827898 1.31489632 7.4078734 1.4375 10.1875 C1.47681641 11.14720703 1.51613281 12.10691406 1.55664062 13.09570312 C1.61948242 14.49272461 1.61948242 14.49272461 1.68359375 15.91796875 C1.72025146 16.77156982 1.75690918 17.6251709 1.79467773 18.50463867 C2.00531094 21.06454594 2.44841536 23.49333243 3 26 C3.99 26.33 4.98 26.66 6 27 C6.33 25.35 6.66 23.7 7 22 C7.66 22 8.32 22 9 22 C8.67 24.31 8.34 26.62 8 29 C3.49044586 30.25265393 3.49044586 30.25265393 0.9375 28.9375 C-0.0215625 28.4734375 -0.0215625 28.4734375 -1 28 C-1.66 28.33 -2.32 28.66 -3 29 C-3.66 29.33 -4.32 29.66 -5 30 C-7.25 29.125 -7.25 29.125 -9 28 C-9 27.01 -9 26.02 -9 25 C-8.01 25.33 -7.02 25.66 -6 26 C-3.67256616 25.11001159 -3.67256616 25.11001159 -2 23 C-1.83333333 19.5 -1.83333333 19.5 -2 16 C-1.34 15.01 -0.68 14.02 0 13 C-0.99 12.67 -1.98 12.34 -3 12 C-2.01 11.67 -1.02 11.34 0 11 C-0.474375 10.608125 -0.94875 10.21625 -1.4375 9.8125 C-3.35179633 7.59191626 -3.61266988 5.86624291 -4 3 C-3.01 3 -2.02 3 -1 3 C-0.67 2.01 -0.34 1.02 0 0 Z " fill="#5DA442" transform="translate(256,235)"/>
<path d="M0 0 C1 1 1 1 1.11352539 4.51000977 C1.11336626 6.07048422 1.10767142 7.63096393 1.09765625 9.19140625 C1.0962413 10.01124496 1.09482635 10.83108368 1.09336853 11.67576599 C1.08775289 14.30471382 1.07519779 16.93357773 1.0625 19.5625 C1.05748701 21.34049357 1.05292376 23.11848846 1.04882812 24.89648438 C1.03777839 29.26435545 1.02050331 33.63216348 1 38 C-2.47823115 39.15941038 -4.45895578 38.70820884 -8 38 C-7.67 37.34 -7.34 36.68 -7 36 C-5.02 36.33 -3.04 36.66 -1 37 C-1.33 26.44 -1.66 15.88 -2 5 C-2.99 4.67 -3.98 4.34 -5 4 C-6.53266582 7.06533164 -6.10276471 10.26754272 -6.0625 13.625 C-6.05573242 14.68460938 -6.05573242 14.68460938 -6.04882812 15.765625 C-6.03703875 17.51045275 -6.01910324 19.255237 -6 21 C-6.66 21 -7.32 21 -8 21 C-8.33 14.4 -8.66 7.8 -9 1 C-5.68024318 0.1700608 -3.35107416 -0.18113914 0 0 Z " fill="#1B295A" transform="translate(356,226)"/>
<path d="M0 0 C0.66 0.33 1.32 0.66 2 1 C0.41467191 5.55564061 -1.99003081 9.31475769 -4.625 13.3125 C-5.04523438 13.95767578 -5.46546875 14.60285156 -5.8984375 15.26757812 C-6.92838241 16.84760724 -7.96365628 18.42416047 -9 20 C-5.77759362 20.72339735 -3.19028828 20.94396188 0 20 C2.94862341 16.65074841 4.99458849 12.97213341 7 9 C10.19739209 12.08991672 12.60883312 15.24245204 15 19 C14.67 19.66 14.34 20.32 14 21 C12.68 20.34 11.36 19.68 10 19 C9.34 19.66 8.68 20.32 8 21 C7.34 21 6.68 21 6 21 C6.66 19.68 7.32 18.36 8 17 C8.66 17 9.32 17 10 17 C9.67 16.01 9.34 15.02 9 14 C8.01 13.67 7.02 13.34 6 13 C6 13.99 6 14.98 6 16 C5.34 16 4.68 16 4 16 C3.71125 16.78375 3.4225 17.5675 3.125 18.375 C2 21 2 21 0 23 C-2.1640625 22.9765625 -2.1640625 22.9765625 -4.625 22.625 C-5.85089844 22.45871094 -5.85089844 22.45871094 -7.1015625 22.2890625 C-7.72804688 22.19367188 -8.35453125 22.09828125 -9 22 C-9 22.66 -9 23.32 -9 24 C-9.99 23.67 -10.98 23.34 -12 23 C-12.33 21.02 -12.66 19.04 -13 17 C-12.01 17 -11.02 17 -10 17 C-9.34 15.35 -8.68 13.7 -8 12 C-7.34 12 -6.68 12 -6 12 C-6 11.34 -6 10.68 -6 10 C-5.34 10 -4.68 10 -4 10 C-3.67 8.02 -3.34 6.04 -3 4 C-2.01 4 -1.02 4 0 4 C0 2.68 0 1.36 0 0 Z " fill="#57A15C" transform="translate(446,243)"/>
<path d="M0 0 C3.33333333 5 6.66666667 10 10 15 C9.67 15.66 9.34 16.32 9 17 C8.34 15.68 7.68 14.36 7 13 C6.34 13 5.68 13 5 13 C5 12.34 5 11.68 5 11 C4.34 11 3.68 11 3 11 C3 10.34 3 9.68 3 9 C2.34 9 1.68 9 1 9 C0.67 8.01 0.34 7.02 0 6 C-0.99 5.67 -1.98 5.34 -3 5 C-7.0042343 8.49087093 -8.62671065 10.64951939 -9 16 C-7.35 16 -5.7 16 -4 16 C-4.20625 17.010625 -4.4125 18.02125 -4.625 19.0625 C-5.02917922 23.30638183 -4.21804253 25.96523413 -3 30 C-3.4375 32.20703125 -3.4375 32.20703125 -4 34 C-5.37592202 30.94682321 -6.72173626 27.88125974 -8.0625 24.8125 C-8.64741211 23.51602539 -8.64741211 23.51602539 -9.24414062 22.19335938 C-9.60830078 21.35224609 -9.97246094 20.51113281 -10.34765625 19.64453125 C-10.68804932 18.87471924 -11.02844238 18.10490723 -11.37915039 17.31176758 C-12.13609666 14.49323662 -11.84249798 12.77443799 -11 10 C-9.2578125 7.83203125 -9.2578125 7.83203125 -7.125 5.8125 C-6.42632812 5.13832031 -5.72765625 4.46414062 -5.0078125 3.76953125 C-3 2 -3 2 0 0 Z " fill="#56A752" transform="translate(436,226)"/>
<path d="M0 0 C3.96 0 7.92 0 12 0 C12 2.97 12 5.94 12 9 C7.71 9 3.42 9 -1 9 C-1 12.96 -1 16.92 -1 21 C-4.96 21.495 -4.96 21.495 -9 22 C-9.66 20.68 -10.32 19.36 -11 18 C-7.79604584 18 -5.90600261 18.74335022 -3 20 C-3.12375 18.72125 -3.2475 17.4425 -3.375 16.125 C-3.44460938 15.40570313 -3.51421875 14.68640625 -3.5859375 13.9453125 C-3.86374749 11.77331755 -3.86374749 11.77331755 -6 10 C-5.6730244 7.38419521 -5.17960932 5.35921863 -4 3 C-3.34 3.33 -2.68 3.66 -2 4 C-2 4.66 -2 5.32 -2 6 C2.29 6.33 6.58 6.66 11 7 C11 5.35 11 3.7 11 2 C7.04 2 3.08 2 -1 2 C-0.67 1.34 -0.34 0.68 0 0 Z " fill="#152460" transform="translate(288,243)"/>
<path d="M0 0 C0.65972305 -0.00095673 1.31944611 -0.00191345 1.99916077 -0.00289917 C3.39714656 -0.00358086 4.79513549 -0.00172736 6.19311523 0.00244141 C8.33519607 0.00778144 10.47706642 0.00250051 12.61914062 -0.00390625 C13.97526088 -0.0032453 15.33138101 -0.00196379 16.6875 0 C17.92749756 0.00112793 19.16749512 0.00225586 20.44506836 0.00341797 C23.41015625 0.1328125 23.41015625 0.1328125 25.41015625 1.1328125 C25.5078125 7.28515625 25.5078125 7.28515625 25.41015625 9.1328125 C24.41015625 10.1328125 24.41015625 10.1328125 21.90625 10.23046875 C20.39224609 10.21306641 20.39224609 10.21306641 18.84765625 10.1953125 C17.83574219 10.18628906 16.82382812 10.17726562 15.78125 10.16796875 C14.60755859 10.15056641 14.60755859 10.15056641 13.41015625 10.1328125 C13.08015625 9.4728125 12.75015625 8.8128125 12.41015625 8.1328125 C16.04015625 7.8028125 19.67015625 7.4728125 23.41015625 7.1328125 C23.41015625 5.8128125 23.41015625 4.4928125 23.41015625 3.1328125 C13.84015625 2.8028125 4.27015625 2.4728125 -5.58984375 2.1328125 C-5.25984375 3.1228125 -4.92984375 4.1128125 -4.58984375 5.1328125 C-4.91984375 5.7928125 -5.24984375 6.4528125 -5.58984375 7.1328125 C-2.61132812 7.03515625 -2.61132812 7.03515625 0.3671875 6.9375 C2.41015625 7.1328125 2.41015625 7.1328125 5.41015625 9.1328125 C2.90876023 10.38351051 1.13622934 10.26583717 -1.65234375 10.2578125 C-3.00005859 10.26167969 -3.00005859 10.26167969 -4.375 10.265625 C-6.58984375 10.1328125 -6.58984375 10.1328125 -7.58984375 9.1328125 C-7.72265625 7.3203125 -7.72265625 7.3203125 -7.71484375 5.1328125 C-7.71742188 4.4109375 -7.72 3.6890625 -7.72265625 2.9453125 C-7.410056 -1.32076152 -3.42767661 0.00312073 0 0 Z " fill="#1B2754" transform="translate(369.58984375,225.8671875)"/>
<path d="M0 0 C1.24810335 3.78213135 1.03501717 7.46799294 0.87890625 11.390625 C0.85529526 12.09523865 0.83168427 12.79985229 0.80735779 13.52581787 C0.73103023 15.7674328 0.64687421 18.00867496 0.5625 20.25 C0.5092483 21.7734195 0.45650812 23.29685698 0.40429688 24.8203125 C0.27545752 28.54710155 0.13959768 32.27359667 0 36 C1.98 36 3.96 36 6 36 C6.33 24.78 6.66 13.56 7 2 C5.35 2 3.7 2 2 2 C2.33 1.34 2.66 0.68 3 0 C4.65 0 6.3 0 8 0 C8 12.54 8 25.08 8 38 C5.03 38 2.06 38 -1 38 C-1.02464928 32.74894558 -1.04283568 27.49792455 -1.05493164 22.24682617 C-1.05997218 20.45905979 -1.06680454 18.67129755 -1.07543945 16.88354492 C-1.0875173 14.31948832 -1.09323094 11.75548603 -1.09765625 9.19140625 C-1.10281754 8.3872377 -1.10797882 7.58306915 -1.11329651 6.75453186 C-1.11349215 4.83598285 -1.06201983 2.91754632 -1 1 C-0.67 0.67 -0.34 0.34 0 0 Z " fill="#1E2B58" transform="translate(130,226)"/>
<path d="M0 0 C2.97851562 0.53710938 2.97851562 0.53710938 5.95703125 1.07421875 C5.30817968 5.07055456 4.05750361 8.48649507 2.45703125 12.19921875 C-0.43080421 17.84517552 -0.43080421 17.84517552 -0.10546875 23.76171875 C0.24515625 24.52484375 0.59578125 25.28796875 0.95703125 26.07421875 C-0.03296875 25.74421875 -1.02296875 25.41421875 -2.04296875 25.07421875 C-2.37296875 22.10421875 -2.70296875 19.13421875 -3.04296875 16.07421875 C-2.38296875 16.07421875 -1.72296875 16.07421875 -1.04296875 16.07421875 C-0.05296875 12.44421875 0.93703125 8.81421875 1.95703125 5.07421875 C0.30703125 5.07421875 -1.34296875 5.07421875 -3.04296875 5.07421875 C-3.04296875 7.05421875 -3.04296875 9.03421875 -3.04296875 11.07421875 C-4.69296875 11.73421875 -6.34296875 12.39421875 -8.04296875 13.07421875 C-7.61773059 11.46675819 -7.17726749 9.86332039 -6.73046875 8.26171875 C-6.48683594 7.36839844 -6.24320313 6.47507813 -5.9921875 5.5546875 C-4.7415463 2.28655103 -3.71734716 0.13504703 0 0 Z " fill="#1A295D" transform="translate(214.04296875,225.92578125)"/>
<path d="M0 0 C4.48115095 1.40836173 6.79160213 3.63118224 10 7 C11.64864545 8.35555293 13.31003995 9.69631653 15 11 C14.67 11.99 14.34 12.98 14 14 C11.4375 14.5 11.4375 14.5 8 14 C6.00077034 12.15554941 4.37739879 10.1905914 2.7109375 8.04296875 C0.97923368 5.97520368 -0.78966428 4.52986119 -3 3 C-2.34 3 -1.68 3 -1 3 C-0.67 2.01 -0.34 1.02 0 0 Z " fill="#629753" transform="translate(60,255)"/>
<path d="M0 0 C3.5 0.125 3.5 0.125 4.5 1.125 C4.58767112 3.19762076 4.60695873 5.27320294 4.59765625 7.34765625 C4.59443359 8.60771484 4.59121094 9.86777344 4.58789062 11.16601562 C4.57953403 12.50651109 4.57106907 13.84700588 4.5625 15.1875 C4.5574866 16.53189942 4.55292342 17.8763006 4.54882812 19.22070312 C4.53699488 22.52217941 4.52050971 25.82356803 4.5 29.125 C3.84 29.125 3.18 29.125 2.5 29.125 C1.16742597 11.26850797 1.16742597 11.26850797 2.5 3.125 C-0.47 2.63 -0.47 2.63 -3.5 2.125 C-3.5 9.715 -3.5 17.305 -3.5 25.125 C-3.83 25.125 -4.16 25.125 -4.5 25.125 C-4.52886984 21.14584841 -4.54675406 17.16672347 -4.5625 13.1875 C-4.57087891 12.05119141 -4.57925781 10.91488281 -4.58789062 9.74414062 C-4.59111328 8.66455078 -4.59433594 7.58496094 -4.59765625 6.47265625 C-4.60289307 5.47242432 -4.60812988 4.47219238 -4.61352539 3.44165039 C-4.42917404 -0.32030656 -3.90982226 0.13963651 0 0 Z " fill="#1C2B57" transform="translate(116.5,225.875)"/>
<path d="M0 0 C0.33 0 0.66 0 1 0 C1 8.91 1 17.82 1 27 C-5 28 -5 28 -8 27 C-8 18.75 -8 10.5 -8 2 C-7.67 2 -7.34 2 -7 2 C-7 9.26 -7 16.52 -7 24 C-5.35 24.33 -3.7 24.66 -2 25 C-1.96241577 24.02389771 -1.96241577 24.02389771 -1.92407227 23.02807617 C-1.80806298 20.08101954 -1.68535885 17.1342787 -1.5625 14.1875 C-1.52318359 13.16333984 -1.48386719 12.13917969 -1.44335938 11.08398438 C-1.40146484 10.10107422 -1.35957031 9.11816406 -1.31640625 8.10546875 C-1.27974854 7.19949951 -1.24309082 6.29353027 -1.20532227 5.36010742 C-1 3 -1 3 0 0 Z " fill="#1A295C" transform="translate(382,237)"/>
<path d="M0 0 C7 2 7 2 14 4 C14 4.33 14 4.66 14 5 C11.36 5 8.72 5 6 5 C6 6.65 6 8.3 6 10 C10.29 10 14.58 10 19 10 C19.66 11.65 20.32 13.3 21 15 C18.35541621 16.32229189 16.32238699 16.09677194 13.375 16.0625 C12.37210938 16.05347656 11.36921875 16.04445312 10.3359375 16.03515625 C9.56507812 16.02355469 8.79421875 16.01195312 8 16 C8 15.67 8 15.34 8 15 C11.07617188 14.70703125 11.07617188 14.70703125 14.15234375 14.4140625 C14.76207031 14.27742187 15.37179688 14.14078125 16 14 C16.33 13.34 16.66 12.68 17 12 C13.04 12 9.08 12 5 12 C4.731875 10.906875 4.46375 9.81375 4.1875 8.6875 C3.12336261 5.38307337 2.65345336 4.05039578 0 2 C-0.33 2.99 -0.66 3.98 -1 5 C-0.67 3.35 -0.34 1.7 0 0 Z " fill="#6AAC57" transform="translate(41,233)"/>
<path d="M0 0 C2.64 0 5.28 0 8 0 C8.99 3.96 9.98 7.92 11 12 C8.69 12 6.38 12 4 12 C5 10 5 10 7 8 C6.01 7.67 5.02 7.34 4 7 C4.33 5.35 4.66 3.7 5 2 C2.93597032 2.48705712 2.93597032 2.48705712 1 4 C0.18129815 7.56206661 0.18129815 7.56206661 0 11 C-0.99 11.33 -1.98 11.66 -3 12 C-3.66 12.66 -4.32 13.32 -5 14 C-4.34580901 8.93001981 -2.1453591 4.58009223 0 0 Z " fill="#1A2B72" transform="translate(411,226)"/>
<path d="M0 0 C3.81248426 -0.02887236 7.6249407 -0.04675492 11.4375 -0.0625 C12.52611328 -0.07087891 13.61472656 -0.07925781 14.73632812 -0.08789062 C15.77080078 -0.09111328 16.80527344 -0.09433594 17.87109375 -0.09765625 C18.82943115 -0.10289307 19.78776855 -0.10812988 20.77514648 -0.11352539 C23 0 23 0 24 1 C24.14115161 3.67058851 24.04247107 6.32432238 24 9 C19.05 9.33 14.1 9.66 9 10 C9 9.34 9 8.68 9 8 C13.29 8 17.58 8 22 8 C21.34 6.68 20.68 5.36 20 4 C13.4 4 6.8 4 0 4 C0 2.68 0 1.36 0 0 Z " fill="#1A2757" transform="translate(278,226)"/>
<path d="M0 0 C-1.26249623 3.7874887 -2.95688505 4.15168182 -6.34375 5.94921875 C-8.4471482 7.28368601 -9.24342712 8.64621769 -10 11 C-8.02 11 -6.04 11 -4 11 C-3.67 11.99 -3.34 12.98 -3 14 C-2.34 14 -1.68 14 -1 14 C1 17 1 17 1 20 C1.99 20 2.98 20 4 20 C4.12375 19.21625 4.2475 18.4325 4.375 17.625 C5 15 5 15 7 13 C7.99 13.33 8.98 13.66 10 14 C7.69 17.3 5.38 20.6 3 24 C0.42985936 21.42985936 -0.60845558 19.96468258 -2.1875 16.875 C-4.01063371 13.81437781 -4.01063371 13.81437781 -7.1015625 12.2578125 C-9.55196074 11.92881712 -9.55196074 11.92881712 -13 12 C-12.66700329 8.98264206 -12.01183726 8.01144059 -9.78515625 5.859375 C-8.88667969 5.16328125 -7.98820312 4.4671875 -7.0625 3.75 C-6.16660156 3.04359375 -5.27070313 2.3371875 -4.34765625 1.609375 C-2 0 -2 0 0 0 Z " fill="#59A262" transform="translate(451,215)"/>
<path d="M0 0 C1.65 0.99 3.3 1.98 5 3 C5 2.34 5 1.68 5 1 C5.99 1.33 6.98 1.66 8 2 C6.87548273 4.9719385 5.77706209 7.33440687 4 10 C1.6171875 10.29296875 1.6171875 10.29296875 -1.125 10.1875 C-2.03507812 10.16042969 -2.94515625 10.13335937 -3.8828125 10.10546875 C-4.58148438 10.07066406 -5.28015625 10.03585937 -6 10 C-5.18957164 8.51969728 -4.37659652 7.04078858 -3.5625 5.5625 C-2.88380859 4.32693359 -2.88380859 4.32693359 -2.19140625 3.06640625 C-1 1 -1 1 0 0 Z " fill="#14316B" transform="translate(442,254)"/>
<path d="M0 0 C0.99 0 1.98 0 3 0 C2.48964169 4.3890815 1.47785723 7.33708062 -1 11 C-0.34 11 0.32 11 1 11 C1.33 12.32 1.66 13.64 2 15 C0.35 14.67 -1.3 14.34 -3 14 C-3 13.34 -3 12.68 -3 12 C-4.65 12.33 -6.3 12.66 -8 13 C-8 9.06368636 -6.57142871 7.87394974 -4 5 C-3.34 4.67 -2.68 4.34 -2 4 C-0.86649466 1.98330173 -0.86649466 1.98330173 0 0 Z " fill="#54A740" transform="translate(251,227)"/>
<path d="M0 0 C0.721875 0.00257813 1.44375 0.00515625 2.1875 0.0078125 C2.909375 0.00523437 3.63125 0.00265625 4.375 0 C6.1875 0.1328125 6.1875 0.1328125 7.1875 1.1328125 C7.32111612 2.95006687 7.39098598 4.77208831 7.43359375 6.59375 C7.46646484 7.70492187 7.49933594 8.81609375 7.53320312 9.9609375 C7.59419644 12.31761544 7.65151316 14.67439152 7.70507812 17.03125 C7.75631836 18.701875 7.75631836 18.701875 7.80859375 20.40625 C7.8336499 21.43153809 7.85870605 22.45682617 7.88452148 23.51318359 C8.0127418 26.36405964 8.0127418 26.36405964 10.1875 29.1328125 C13.64519191 29.71623603 13.64519191 29.71623603 17.1875 29.1328125 C19.16989527 27.27156327 19.16989527 27.27156327 20.1875 25.1328125 C20.1875 26.7828125 20.1875 28.4328125 20.1875 30.1328125 C17.8478331 31.30264595 16.35358473 31.2989366 13.75 31.3203125 C12.57630859 31.34158203 12.57630859 31.34158203 11.37890625 31.36328125 C9.1875 31.1328125 9.1875 31.1328125 6.1875 29.1328125 C4.83800997 24.13356534 5.10465044 19.01948549 5.1875 13.8828125 C5.5507009 8.34390578 5.5507009 8.34390578 4.1875 3.1328125 C2.8675 3.1328125 1.5475 3.1328125 0.1875 3.1328125 C-0.1425 5.7728125 -0.4725 8.4128125 -0.8125 11.1328125 C-1.1425 11.1328125 -1.4725 11.1328125 -1.8125 11.1328125 C-2.00656478 9.48774032 -2.19257935 7.84171656 -2.375 6.1953125 C-2.47941406 5.27878906 -2.58382812 4.36226562 -2.69140625 3.41796875 C-2.73136719 2.66386719 -2.77132812 1.90976563 -2.8125 1.1328125 C-1.8125 0.1328125 -1.8125 0.1328125 0 0 Z " fill="#1B2856" transform="translate(91.8125,225.8671875)"/>
<path d="M0 0 C0.62109375 1.88671875 0.62109375 1.88671875 1 4 C0.0409375 4.8971875 0.0409375 4.8971875 -0.9375 5.8125 C-3.39637818 7.95577873 -3.39637818 7.95577873 -3.25 11.75 C-3.1675 12.8225 -3.085 13.895 -3 15 C-2.01 15 -1.02 15 0 15 C3 20.625 3 20.625 3 24 C4.32 24 5.64 24 7 24 C7.33 24.99 7.66 25.98 8 27 C7.01 27.66 6.02 28.32 5 29 C3.00821743 26.28305388 1.02404428 23.56139598 -0.9453125 20.828125 C-2.10187892 19.23619707 -3.27311454 17.65395959 -4.4921875 16.109375 C-5.625 14.625 -5.625 14.625 -7 12 C-6.17784711 7.41943388 -2.73501414 3.67067687 0 0 Z " fill="#56AC4E" transform="translate(466,234)"/>
<path d="M0 0 C6.3479871 -0.34486047 11.37574907 -0.35291883 17 3 C20.77182646 6.45608534 23.67846531 9.69467767 24 15 C19.96901069 16.15171123 17.70658609 16.00356005 14 14 C13.34 13.01 12.68 12.02 12 11 C12.5775 11.33 13.155 11.66 13.75 12 C16.19883862 13.27075898 16.19883862 13.27075898 20 13 C19.69381595 9.32579134 19.24228216 8.21864487 16.4375 5.6875 C15.633125 5.130625 14.82875 4.57375 14 4 C13.67 4.66 13.34 5.32 13 6 C12.67 4.68 12.34 3.36 12 2 C8.04 2 4.08 2 0 2 C0 1.34 0 0.68 0 0 Z " fill="#162353" transform="translate(158,226)"/>
<path d="M0 0 C0.99 0.33 1.98 0.66 3 1 C3 4.3 3 7.6 3 11 C2.01 11.495 2.01 11.495 1 12 C0.27306096 13.97888961 -0.39816251 15.97954558 -1 18 C-3 16 -3 16 -3.1875 12.4375 C-3 9 -3 9 -2 8 C-1.95907063 5.66702567 -1.95758277 3.33294775 -2 1 C-1.34 0.67 -0.68 0.34 0 0 Z " fill="#182C78" transform="translate(94,229)"/>
<path d="M0 0 C2.51083114 1.25541557 2.87125446 2.50063488 4 5 C2.85546875 6.953125 2.85546875 6.953125 1 9 C-2.67976498 9.83074289 -6.21136775 9.82171142 -10 10 C-8.02 7.03 -6.04 4.06 -4 1 C-3.01 1.33 -2.02 1.66 -1 2 C-0.67 1.34 -0.34 0.68 0 0 Z " fill="#192D75" transform="translate(173,253)"/>
<path d="M0 0 C3.00417762 1.39431562 5.48200573 3.07781611 8.125 5.0625 C13.87781145 8.95466616 19.33851396 9.51260805 26.125 8.5625 C26.74375 8.376875 27.3625 8.19125 28 8 C24.87562153 11.26639568 22.90474669 12.20610427 18.375 12.4375 C12.37433168 12.38554616 9.24601513 10.01064844 5 6 C4.47019531 5.51273437 3.94039063 5.02546875 3.39453125 4.5234375 C2.21686076 3.39524897 1.10045674 2.20362456 0 1 C0 0.67 0 0.34 0 0 Z " fill="#6DA35C" transform="translate(437,267)"/>
<path d="M0 0 C1.65 0.33 3.3 0.66 5 1 C4.814375 1.556875 4.62875 2.11375 4.4375 2.6875 C3.76509521 5.45038789 3.76509521 5.45038789 5 10 C8.96 10 12.92 10 17 10 C17 10.66 17 11.32 17 12 C11.06 12.495 11.06 12.495 5 13 C5 13.66 5 14.32 5 15 C4.34 15 3.68 15 3 15 C2.87882812 14.21753906 2.75765625 13.43507812 2.6328125 12.62890625 C2.38144531 11.11103516 2.38144531 11.11103516 2.125 9.5625 C1.96257813 8.55316406 1.80015625 7.54382813 1.6328125 6.50390625 C1.42398438 5.67761719 1.21515625 4.85132813 1 4 C0.34 3.67 -0.32 3.34 -1 3 C-0.67 2.01 -0.34 1.02 0 0 Z " fill="#5AB13F" transform="translate(41,235)"/>
<path d="M0 0 C0.66 0 1.32 0 2 0 C2 0.66 2 1.32 2 2 C4.475 2.99 4.475 2.99 7 4 C6.67 4.99 6.34 5.98 6 7 C6.99 7 7.98 7 9 7 C11 10 11 10 11 13 C7.28400809 13.20086443 6.22791555 13.1519437 3 11 C2.05078125 8.65234375 2.05078125 8.65234375 1.3125 5.9375 C1.06113281 5.03902344 0.80976563 4.14054688 0.55078125 3.21484375 C0 1 0 1 0 0 Z " fill="#152F70" transform="translate(457,250)"/>
<path d="M0 0 C2.64 0 5.28 0 8 0 C8.33 2.31 8.66 4.62 9 7 C8.34 7 7.68 7 7 7 C7 7.99 7 8.98 7 10 C6.01 10.33 5.02 10.66 4 11 C3.67 10.01 3.34 9.02 3 8 C3.66 8 4.32 8 5 8 C5.33 6.02 5.66 4.04 6 2 C2.88667752 2.66868314 2.88667752 2.66868314 1.8125 5.0625 C1.544375 5.701875 1.27625 6.34125 1 7 C0.34 7 -0.32 7 -1 7 C-1.33 7.99 -1.66 8.98 -2 10 C-3.39195915 5.82412255 -1.82323219 3.86525224 0 0 Z " fill="#61A149" transform="translate(248,225)"/>
<path d="M0 0 C-0.33 1.98 -0.66 3.96 -1 6 C-1.99 6 -2.98 6 -4 6 C-4.33 6.66 -4.66 7.32 -5 8 C-5 7.01 -5 6.02 -5 5 C-7.97 5 -10.94 5 -14 5 C-13 3 -13 3 -10 2 C-9.67 1.34 -9.34 0.68 -9 0 C-5.52176885 -1.15941038 -3.54104422 -0.70820884 0 0 Z " fill="#5BAD44" transform="translate(460,215)"/>
<path d="M0 0 C0.66 0 1.32 0 2 0 C3.86783046 5.48675196 4.2358396 10.22192976 4 16 C-0.69879518 11.78313253 -0.69879518 11.78313253 -1.9375 8.5625 C-2.01557578 5.36139282 -1.16979658 2.95889722 0 0 Z " fill="#0D2951" transform="translate(36,245)"/>
<path d="M0 0 C0.33 1.32 0.66 2.64 1 4 C2.65 4 4.3 4 6 4 C5.79375 5.010625 5.5875 6.02125 5.375 7.0625 C4.97082078 11.30638183 5.78195747 13.96523413 7 18 C6.5625 20.20703125 6.5625 20.20703125 6 22 C4.79613537 19.27704434 3.61184242 16.54815863 2.4375 13.8125 C2.09525391 13.04357422 1.75300781 12.27464844 1.40039062 11.48242188 C-1.61142744 4.39400159 -1.61142744 4.39400159 0 0 Z " fill="#55AB50" transform="translate(426,238)"/>
<path d="M0 0 C2 1 4 2 6 3 C6 3.66 6 4.32 6 5 C11.83065955 6.57585393 17.28869624 5.65784045 23 4 C26.10538124 2.09296784 26.10538124 2.09296784 28 0 C26.46698025 4.29245529 24.0322912 6.01922537 20 8 C14.70676188 8.79717442 9.74537132 8.78469367 4.9375 6.25 C2.26909586 4.20611598 1.01208398 3.1487057 0 0 Z " fill="#1A2B55" transform="translate(91,257)"/>
<path d="M0 0 C0 3.3 0 6.6 0 10 C-1.65 9.67 -3.3 9.34 -5 9 C-5.66 6.69 -6.32 4.38 -7 2 C-4 0 -4 0 0 0 Z " fill="#4CAE32" transform="translate(235,252)"/>
<path d="M0 0 C0.66 0.66 1.32 1.32 2 2 C-3.08940744 4.05362055 -7.54520815 5.43179252 -13 6 C-13 4.68 -13 3.36 -13 2 C-8.49016424 -0.25491788 -4.94576735 -0.32431261 0 0 Z " fill="#1C2F69" transform="translate(58,222)"/>
<path d="M0 0 C3.49999654 3.17907995 4.98593331 6.76351489 7 11 C3.37 11 -0.26 11 -4 11 C-1 9 -1 9 3 9 C1.35 8.67 -0.3 8.34 -2 8 C-2.6875 5.6875 -2.6875 5.6875 -3 3 C-1.5625 1.1875 -1.5625 1.1875 0 0 Z " fill="#172D67" transform="translate(215,253)"/>
<path d="M0 0 C1.98 0.66 3.96 1.32 6 2 C5.34 2.66 4.68 3.32 4 4 C4 4.99 4 5.98 4 7 C1.0936485 9.80255323 0.21174952 10 -4 10 C-3.43454163 6.04179141 -2.19097652 3.3340947 0 0 Z " fill="#1A2D76" transform="translate(402,253)"/>
<path d="M0 0 C3.40543211 3.83504047 4.90014738 8.40101582 6.6875 13.125 C7.00783203 13.94871094 7.32816406 14.77242187 7.65820312 15.62109375 C10 21.72274787 10 21.72274787 10 24 C9.34 24 8.68 24 8 24 C7.67 22.02 7.34 20.04 7 18 C6.34 18 5.68 18 5 18 C4.67 18.66 4.34 19.32 4 20 C3.81824219 18.77023437 3.81824219 18.77023437 3.6328125 17.515625 C3.46523438 16.43796875 3.29765625 15.3603125 3.125 14.25 C2.96257812 13.18265625 2.80015625 12.1153125 2.6328125 11.015625 C2.14774799 8.06895457 2.14774799 8.06895457 0.9296875 5.859375 C0 4 0 4 0 0 Z " fill="#163E50" transform="translate(424,241)"/>
<path d="M0 0 C0.66 0.66 1.32 1.32 2 2 C1.67 2.33 1.34 2.66 1 3 C0.91152257 5.52094076 0.88472699 8.01430893 0.90234375 10.53515625 C0.9037587 11.28840683 0.90517365 12.04165741 0.90663147 12.81773376 C0.91224624 15.2326956 0.92480117 17.64756601 0.9375 20.0625 C0.9425131 21.69596221 0.94707634 23.32942586 0.95117188 24.96289062 C0.96222046 28.97529585 0.97949494 32.98763241 1 37 C1.66 37.33 2.32 37.66 3 38 C2.01 38.495 2.01 38.495 1 39 C0.34 38.67 -0.32 38.34 -1 38 C-1.02464928 32.74894558 -1.04283568 27.49792455 -1.05493164 22.24682617 C-1.05997218 20.45905979 -1.06680454 18.67129755 -1.07543945 16.88354492 C-1.0875173 14.31948832 -1.09323094 11.75548603 -1.09765625 9.19140625 C-1.10281754 8.3872377 -1.10797882 7.58306915 -1.11329651 6.75453186 C-1.11349215 4.83598285 -1.06201983 2.91754632 -1 1 C-0.67 0.67 -0.34 0.34 0 0 Z " fill="#1B2A4E" transform="translate(189,226)"/>
<path d="M0 0 C1.50433594 0.01353516 1.50433594 0.01353516 3.0390625 0.02734375 C3.80992187 0.03894531 4.58078125 0.05054688 5.375 0.0625 C5.375 1.3825 5.375 2.7025 5.375 4.0625 C0.755 4.0625 -3.865 4.0625 -8.625 4.0625 C-8.295 3.0725 -7.965 2.0825 -7.625 1.0625 C-4.98041621 -0.25979189 -2.94738699 -0.03427194 0 0 Z " fill="#162D77" transform="translate(293.625,245.9375)"/>
<path d="M0 0 C0.33 0.66 0.66 1.32 1 2 C2.8871875 1.87625 2.8871875 1.87625 4.8125 1.75 C7.01953125 1.734375 7.01953125 1.734375 9 2 C11 4 11 4 12 6 C11.67 6.66 11.34 7.32 11 8 C10.34 7.34 9.68 6.68 9 6 C7.68 5.67 6.36 5.34 5 5 C5.66 7.64 6.32 10.28 7 13 C4.07349817 10.36614835 2.00069557 7.38048561 0 4 C0 2.68 0 1.36 0 0 Z " fill="#14434C" transform="translate(437,225)"/>
<path d="M0 0 C3.48677555 2.69432656 4.11783965 5.7927737 5 10 C5.63168137 16.16433889 4.81230039 20.49257841 2 26 C1.01 25.67 0.02 25.34 -1 25 C-0.505 24.236875 -0.01 23.47375 0.5 22.6875 C3.239384 15.953181 2.76527143 9.62122761 0 3 C0 2.01 0 1.02 0 0 Z " fill="#172654" transform="translate(74,230)"/>
<path d="M0 0 C0.99 0.33 1.98 0.66 3 1 C3 1.99 3 2.98 3 4 C3.99 4.33 4.98 4.66 6 5 C5.67 5.66 5.34 6.32 5 7 C3.68 7 2.36 7 1 7 C0.67 9.31 0.34 11.62 0 14 C-0.66 13.34 -1.32 12.68 -2 12 C-1.625 8.875 -1.625 8.875 -1 6 C-2.32 5.34 -3.64 4.68 -5 4 C-2.6875 1.9375 -2.6875 1.9375 0 0 Z " fill="#62A150" transform="translate(239,240)"/>
<path d="M0 0 C3.3 0 6.6 0 10 0 C10 1.32 10 2.64 10 4 C6.7169902 5.6415049 3.57454967 4.51888624 0 4 C0 2.68 0 1.36 0 0 Z " fill="#5BA14B" transform="translate(57,234)"/>
<path d="M0 0 C2.31 0.33 4.62 0.66 7 1 C6.67 2.65 6.34 4.3 6 6 C6.99 6.33 7.98 6.66 9 7 C1.57142857 7.14285714 1.57142857 7.14285714 -2 6 C-1.34 4.02 -0.68 2.04 0 0 Z " fill="#204351" transform="translate(46,260)"/>
<path d="M0 0 C2.475 0.495 2.475 0.495 5 1 C5.33 1.99 5.66 2.98 6 4 C6.33 3.01 6.66 2.02 7 1 C7.66 1 8.32 1 9 1 C9.33 2.98 9.66 4.96 10 7 C7.69 7 5.38 7 3 7 C2.01 4.69 1.02 2.38 0 0 Z " fill="#16255B" transform="translate(422,258)"/>
<path d="M0 0 C2 3 2 3 1.86328125 4.9375 C-0.02764977 12.01843318 -0.02764977 12.01843318 -3 14 C-3.66 14 -4.32 14 -5 14 C-5.66 15.32 -6.32 16.64 -7 18 C-7.99 17.67 -8.98 17.34 -10 17 C-8.1875 14.5 -8.1875 14.5 -6 12 C-5.01 12 -4.02 12 -3 12 C-2.86722656 11.38511719 -2.73445313 10.77023438 -2.59765625 10.13671875 C-2.33275391 8.92435547 -2.33275391 8.92435547 -2.0625 7.6875 C-1.88847656 6.88699219 -1.71445312 6.08648437 -1.53515625 5.26171875 C-1 3 -1 3 0 0 Z " fill="#6B9D56" transform="translate(490,243)"/>
<path d="M0 0 C0.99 0 1.98 0 3 0 C4.29060033 2.58120066 4.13272333 4.49419829 4.125 7.375 C4.12757812 8.33148438 4.13015625 9.28796875 4.1328125 10.2734375 C4.01551878 12.68140854 3.68675951 14.69990068 3 17 C2.01 16.67 1.02 16.34 0 16 C0.33 15.01 0.66 14.02 1 13 C1.16901076 8.52121488 0.85784339 4.39644736 0 0 Z " fill="#1A2E6F" transform="translate(73,236)"/>
<path d="M0 0 C0.33 0.66 0.66 1.32 1 2 C1.84304687 1.75443359 1.84304687 1.75443359 2.703125 1.50390625 C5.13059056 0.97135003 7.26889681 0.90101319 9.75 0.9375 C10.54921875 0.94652344 11.3484375 0.95554688 12.171875 0.96484375 C12.77515625 0.97644531 13.3784375 0.98804688 14 1 C13.67 1.66 13.34 2.32 13 3 C11.948125 2.896875 10.89625 2.79375 9.8125 2.6875 C5.90321946 2.64465903 5.90321946 2.64465903 3.25 5.25 C1.43833714 7.4642546 -0.29370668 9.70532968 -2 12 C-1.85962479 10.18706911 -1.71255111 8.3746557 -1.5625 6.5625 C-1.48128906 5.55316406 -1.40007812 4.54382813 -1.31640625 3.50390625 C-1 1 -1 1 0 0 Z " fill="#18275F" transform="translate(154,233)"/>
<path d="M0 0 C3.67591895 1.0210886 4.9339798 1.91435217 7.3125 5 C9 8 9 8 9 10 C5.37 10.66 1.74 11.32 -2 12 C-2 11.34 -2 10.68 -2 10 C0.70879335 8.64560332 3.00933268 8.93498549 6 9 C4.19587357 5.73539027 3.16605307 4.11070205 0 2 C0 1.34 0 0.68 0 0 Z " fill="#60AA52" transform="translate(461,216)"/>
<path d="M0 0 C2.97 0 5.94 0 9 0 C8.34 1.32 7.68 2.64 7 4 C8.32 4.66 9.64 5.32 11 6 C10.67 6.99 10.34 7.98 10 9 C8.3278148 7.88321917 6.66237197 6.75633648 5 5.625 C3.6078125 4.68527344 3.6078125 4.68527344 2.1875 3.7265625 C1.465625 3.15679687 0.74375 2.58703125 0 2 C0 1.34 0 0.68 0 0 Z " fill="#57AF3E" transform="translate(437,265)"/>
<path d="M0 0 C2.475 0.495 2.475 0.495 5 1 C5.33 2.98 5.66 4.96 6 7 C4.68 7.33 3.36 7.66 2 8 C0.23537317 4.91190305 0 3.76687864 0 0 Z " fill="#162E75" transform="translate(442,230)"/>
<path d="M0 0 C0.66 0 1.32 0 2 0 C2.33 0.99 2.66 1.98 3 3 C2.01 3.495 2.01 3.495 1 4 C0.59270772 6.32156597 0.25561323 8.6568787 0 11 C-0.99 11.33 -1.98 11.66 -3 12 C-3.66 12.66 -4.32 13.32 -5 14 C-4.34580901 8.93001981 -2.1453591 4.58009223 0 0 Z " fill="#1E2A5B" transform="translate(411,226)"/>
<path d="M0 0 C0.66 0.33 1.32 0.66 2 1 C1.29875 1.680625 0.5975 2.36125 -0.125 3.0625 C-3.27934337 6.20780513 -6.13934304 9.5888386 -9 13 C-9.33 12.01 -9.66 11.02 -10 10 C-7.40822235 5.12745802 -4.62088382 2.73052226 0 0 Z " fill="#1A245A" transform="translate(155,227)"/>
<path d="M0 0 C6.46341868 -0.3511314 11.30977257 -0.25155853 17 3 C18.9375 5.1875 18.9375 5.1875 20 7 C18 6 16 5 14 4 C13.67 4.66 13.34 5.32 13 6 C12.67 4.68 12.34 3.36 12 2 C8.04 2 4.08 2 0 2 C0 1.34 0 0.68 0 0 Z " fill="#1A285D" transform="translate(158,226)"/>
<path d="M0 0 C0.66 0 1.32 0 2 0 C1.67 2.31 1.34 4.62 1 7 C-3.05431692 8.15837626 -5.21812119 7.83691257 -9 6 C-9 5.34 -9 4.68 -9 4 C-6.39417629 3.06934867 -5.35801776 2.85082593 -2.75 3.9375 C-2.1725 4.288125 -1.595 4.63875 -1 5 C-0.67 3.35 -0.34 1.7 0 0 Z " fill="#629752" transform="translate(263,257)"/>
<path d="M0 0 C0.66 0.99 1.32 1.98 2 3 C1.360625 3.61875 0.72125 4.2375 0.0625 4.875 C-2.03883584 6.82597612 -2.03883584 6.82597612 -3 9 C-1.02 9 0.96 9 3 9 C3.33 8.01 3.66 7.02 4 6 C4.66 6.33 5.32 6.66 6 7 C5.01 8.485 5.01 8.485 4 10 C1.6171875 10.29296875 1.6171875 10.29296875 -1.125 10.1875 C-2.03507812 10.16042969 -2.94515625 10.13335937 -3.8828125 10.10546875 C-4.58148438 10.07066406 -5.28015625 10.03585937 -6 10 C-5.18957164 8.51969728 -4.37659652 7.04078858 -3.5625 5.5625 C-2.88380859 4.32693359 -2.88380859 4.32693359 -2.19140625 3.06640625 C-1 1 -1 1 0 0 Z " fill="#0E443F" transform="translate(442,254)"/>
<path d="M0 0 C0.66 0 1.32 0 2 0 C2 0.99 2 1.98 2 3 C2.66 3 3.32 3 4 3 C5.625 5 5.625 5 7 7 C6.67 7.66 6.34 8.32 6 9 C2.56404834 7.47291037 -0.11912454 5.40072955 -3 3 C-2.34 3 -1.68 3 -1 3 C-0.67 2.01 -0.34 1.02 0 0 Z " fill="#5EA155" transform="translate(60,255)"/>
<path d="M0 0 C1.62371862 4.01969365 0.28079042 6.72764278 -1.25 10.625 C-1.68828125 11.77226562 -2.1265625 12.91953125 -2.578125 14.1015625 C-4 17 -4 17 -7 19 C-4.94235079 12.54646385 -2.57616518 6.2638737 0 0 Z " fill="#1D2955" transform="translate(405,240)"/>
<path d="M0 0 C2.31 0 4.62 0 7 0 C7.66 1.65 8.32 3.3 9 5 C6.35541621 6.32229189 4.32238699 6.09677194 1.375 6.0625 C0.37210938 6.05347656 -0.63078125 6.04445312 -1.6640625 6.03515625 C-2.43492188 6.02355469 -3.20578125 6.01195312 -4 6 C-4 5.67 -4 5.34 -4 5 C-1.36 4.67 1.28 4.34 4 4 C4.33 3.01 4.66 2.02 5 1 C3.35 1 1.7 1 0 1 C0 0.67 0 0.34 0 0 Z " fill="#68955B" transform="translate(53,243)"/>
<path d="M0 0 C0.66 0.99 1.32 1.98 2 3 C1.67 3.66 1.34 4.32 1 5 C-0.32 5 -1.64 5 -3 5 C-4.93810438 6.67160673 -4.93810438 6.67160673 -6.625 8.875 C-7.21539062 9.59429687 -7.80578125 10.31359375 -8.4140625 11.0546875 C-8.93742187 11.69664062 -9.46078125 12.33859375 -10 13 C-10.66 13.66 -11.32 14.32 -12 15 C-11.50274599 10.68293109 -10.25738888 8.77851658 -7.125 5.8125 C-6.42632812 5.13832031 -5.72765625 4.46414062 -5.0078125 3.76953125 C-3 2 -3 2 0 0 Z " fill="#5A9155" transform="translate(436,226)"/>
<path d="M0 0 C2.97 0 5.94 0 9 0 C7.92598892 2.91517292 7.22189824 4.77810176 5 7 C5.33 5.35 5.66 3.7 6 2 C3.36 2.99 0.72 3.98 -2 5 C-1.34 3.35 -0.68 1.7 0 0 Z " fill="#114548" transform="translate(461,227)"/>
<path d="M0 0 C-0.5625 1.9375 -0.5625 1.9375 -2 4 C-4.33333333 4.33333333 -6.66666667 4.66666667 -9 5 C-10.51294288 6.93597032 -10.51294288 6.93597032 -11 9 C-11 6 -11 6 -9.1875 3.9375 C-5.8353975 0.96849493 -4.60304256 0 0 0 Z " fill="#133661" transform="translate(467,229)"/>
<path d="M0 0 C0.66 0.66 1.32 1.32 2 2 C1.43410156 2.48210937 0.86820312 2.96421875 0.28515625 3.4609375 C-0.44832031 4.09257812 -1.18179687 4.72421875 -1.9375 5.375 C-2.66839844 6.00148438 -3.39929688 6.62796875 -4.15234375 7.2734375 C-6.08380906 8.87747714 -6.08380906 8.87747714 -7 11 C-7.99 11 -8.98 11 -10 11 C-10 10.01 -10 9.02 -10 8 C-9.360625 7.71125 -8.72125 7.4225 -8.0625 7.125 C-5.84793921 6.17176549 -5.84793921 6.17176549 -5 4 C-3.66666667 3.33333333 -2.33333333 2.66666667 -1 2 C-0.67 1.34 -0.34 0.68 0 0 Z " fill="#69A755" transform="translate(475,263)"/>
<path d="M0 0 C0.62109375 1.890625 0.62109375 1.890625 1 4 C0.360625 4.5775 -0.27875 5.155 -0.9375 5.75 C-3.2976885 8.32475109 -3.27941642 8.90829425 -3.25 12.25 C-3.1675 13.4875 -3.085 14.725 -3 16 C-4.32 14.68 -5.64 13.36 -7 12 C-5.44298069 7.32894208 -2.91552627 3.91294315 0 0 Z " fill="#569E63" transform="translate(466,234)"/>
<path d="M0 0 C0.66 0 1.32 0 2 0 C1.34 1.98 0.68 3.96 0 6 C-3.3 6 -6.6 6 -10 6 C-9.34 4.68 -8.68 3.36 -8 2 C-8 2.99 -8 3.98 -8 5 C-7.236875 4.690625 -6.47375 4.38125 -5.6875 4.0625 C-3.81210323 3.32106407 -1.91315348 2.63771783 0 2 C0 1.34 0 0.68 0 0 Z " fill="#192855" transform="translate(406,258)"/>
<path d="M0 0 C3.29148243 1.13499394 3.9959869 1.99283376 5.75 5.125 C6.1625 6.07375 6.575 7.0225 7 8 C6.236875 7.835 5.47375 7.67 4.6875 7.5 C1.96403764 6.90854604 1.96403764 6.90854604 -1 7 C-0.67 4.69 -0.34 2.38 0 0 Z " fill="#13365E" transform="translate(447,232)"/>
<path d="M0 0 C2.05078125 0.03255208 4.1015625 0.06510417 6.15234375 0.09765625 C6.48234375 1.41765625 6.81234375 2.73765625 7.15234375 4.09765625 C6.16234375 4.59265625 6.16234375 4.59265625 5.15234375 5.09765625 C4.82234375 4.43765625 4.49234375 3.77765625 4.15234375 3.09765625 C2.83234375 3.09765625 1.51234375 3.09765625 0.15234375 3.09765625 C-0.17765625 5.73765625 -0.50765625 8.37765625 -0.84765625 11.09765625 C-1.17765625 11.09765625 -1.50765625 11.09765625 -1.84765625 11.09765625 C-2.04172103 9.45258407 -2.2277356 7.80656031 -2.41015625 6.16015625 C-2.51457031 5.24363281 -2.61898437 4.32710937 -2.7265625 3.3828125 C-2.76652344 2.62871094 -2.80648437 1.87460938 -2.84765625 1.09765625 C-1.84765625 0.09765625 -1.84765625 0.09765625 0 0 Z " fill="#151F4C" transform="translate(91.84765625,225.90234375)"/>
<path d="M0 0 C2.00720923 0.28674418 4.0085944 0.61866701 6 1 C5.34 2.98 4.68 4.96 4 7 C3.01 7 2.02 7 1 7 C0.34 5.02 -0.32 3.04 -1 1 C-0.67 0.67 -0.34 0.34 0 0 Z " fill="#2C3956" transform="translate(69,255)"/>
<path d="M0 0 C3 2 3 2 3.875 4.9375 C4 8 4 8 2.8125 9.875 C1 11 1 11 -3 11 C-3 10.34 -3 9.68 -3 9 C-3.66 8.67 -4.32 8.34 -5 8 C-3.02 8 -1.04 8 1 8 C0.67 5.36 0.34 2.72 0 0 Z " fill="#162152" transform="translate(417,242)"/>
<path d="M0 0 C-1.26349349 3.79048048 -2.96423216 4.15735817 -6.35546875 5.953125 C-8.45379767 7.28887833 -9.06424846 8.73860044 -10 11 C-10.99 11.33 -11.98 11.66 -13 12 C-12.66700329 8.98264206 -12.01183726 8.01144059 -9.78515625 5.859375 C-8.88667969 5.16328125 -7.98820312 4.4671875 -7.0625 3.75 C-6.16660156 3.04359375 -5.27070313 2.3371875 -4.34765625 1.609375 C-2 0 -2 0 0 0 Z " fill="#659958" transform="translate(451,215)"/>
<path d="M0 0 C3.08089673 2.77280706 4.68775452 5.06326356 6 9 C2.7 9 -0.6 9 -4 9 C-4.33 8.01 -4.66 7.02 -5 6 C-2.36 6.66 0.28 7.32 3 8 C2.505 7.05125 2.01 6.1025 1.5 5.125 C0 2 0 2 0 0 Z " fill="#104743" transform="translate(465,255)"/>
<path d="M0 0 C0.99 0.99 1.98 1.98 3 3 C1.8125 4.5 1.8125 4.5 0 6 C-2.6875 6.1875 -2.6875 6.1875 -5 6 C-4.75 4.125 -4.75 4.125 -4 2 C-1.9375 0.75 -1.9375 0.75 0 0 Z " fill="#658D58" transform="translate(231,244)"/>
<path d="M0 0 C0.28875 0.61875 0.5775 1.2375 0.875 1.875 C1.93720042 4.13325765 1.93720042 4.13325765 4 6 C3.67 6.99 3.34 7.98 3 9 C2.67 8.34 2.34 7.68 2 7 C-1.02934491 6.34227572 -1.02934491 6.34227572 -4 6 C-3.6875 4.125 -3.6875 4.125 -3 2 C-2.01 1.34 -1.02 0.68 0 0 Z " fill="#56B043" transform="translate(445,220)"/>
<path d="M0 0 C1.9375 0.75 1.9375 0.75 4 2 C4.75 4.125 4.75 4.125 5 6 C2.525 5.01 2.525 5.01 0 4 C-0.66 4.66 -1.32 5.32 -2 6 C-2.66 6 -3.32 6 -4 6 C-3.34 4.68 -2.68 3.36 -2 2 C-1.34 2 -0.68 2 0 2 C0 1.34 0 0.68 0 0 Z " fill="#54AB4B" transform="translate(456,258)"/>
<path d="M0 0 C3 1 3 1 5 3 C5 3.99 5 4.98 5 6 C4.34 6 3.68 6 3 6 C2.67 7.32 2.34 8.64 2 10 C2 8.35 2 6.7 2 5 C1.34 5 0.68 5 0 5 C-0.5625 3.0625 -0.5625 3.0625 -1 1 C-0.67 0.67 -0.34 0.34 0 0 Z " fill="#1F3961" transform="translate(35,232)"/>
<path d="M0 0 C3.62107449 4.44404597 5.33060893 8.21434368 5 14 C3 13 3 13 2.1484375 11.07421875 C1.89320313 10.28660156 1.63796875 9.49898437 1.375 8.6875 C0.98441406 7.51767578 0.98441406 7.51767578 0.5859375 6.32421875 C0 4 0 4 0 0 Z " fill="#1F335A" transform="translate(419,227)"/>
<path d="M0 0 C0.66 0 1.32 0 2 0 C2.99 1.98 3.98 3.96 5 6 C1.37 6 -2.26 6 -6 6 C-3 4 -3 4 1 4 C0.67 2.68 0.34 1.36 0 0 Z " fill="#1B2B5A" transform="translate(217,258)"/>
<path d="M0 0 C0.66 0.33 1.32 0.66 2 1 C2.625 3.0625 2.625 3.0625 3 5 C4.98 4.67 6.96 4.34 9 4 C8.67 4.99 8.34 5.98 8 7 C2.56193353 7.36253776 2.56193353 7.36253776 0.0625 5.75 C-1 4 -1 4 -0.6875 1.8125 C-0.460625 1.214375 -0.23375 0.61625 0 0 Z " fill="#5B8651" transform="translate(66,262)"/>
<path d="M0 0 C-0.33 1.32 -0.66 2.64 -1 4 C-1 3.01 -1 2.02 -1 1 C-1.99 1.495 -1.99 1.495 -3 2 C-3.40729228 4.32156597 -3.74438677 6.6568787 -4 9 C-5.74627478 6.38058783 -6.38722388 4.96175123 -7 2 C-4 0 -4 0 0 0 Z " fill="#50AF3F" transform="translate(235,252)"/>
<path d="M0 0 C0.66 0 1.32 0 2 0 C2 0.66 2 1.32 2 2 C2.99 1.67 3.98 1.34 5 1 C5.6875 2.8125 5.6875 2.8125 6 5 C5.01 5.99 4.02 6.98 3 8 C2.01 5.36 1.02 2.72 0 0 Z " fill="#39684B" transform="translate(65,231)"/>
<path d="M0 0 C3.33727786 1.17255709 5.77437487 2.18868404 8 5 C8 5.66 8 6.32 8 7 C7.01 7 6.02 7 5 7 C0 1.53488372 0 1.53488372 0 0 Z " fill="#254B41" transform="translate(57,259)"/>
<path d="M0 0 C1.92952974 3.85905949 3.12483821 6.26132535 3.0625 10.625 C3.05347656 11.44226563 3.04445312 12.25953125 3.03515625 13.1015625 C3.02355469 13.72804688 3.01195312 14.35453125 3 15 C1 13 1 13 0.9375 10.4375 C0.958125 9.633125 0.97875 8.82875 1 8 C0.67 7.67 0.34 7.34 0 7 C-0.04092937 4.66702567 -0.04241723 2.33294775 0 0 Z " fill="#233E56" transform="translate(37,246)"/>
<path d="M0 0 C2.97 0.99 5.94 1.98 9 3 C6 5 6 5 3.3125 4.625 C2.549375 4.41875 1.78625 4.2125 1 4 C0.67 2.68 0.34 1.36 0 0 Z " fill="#111D41" transform="translate(277,260)"/>
<path d="M0 0 C3.875 0.875 3.875 0.875 5 2 C5.04092937 4.33297433 5.04241723 6.66705225 5 9 C4.67 9 4.34 9 4 9 C4 7.02 4 5.04 4 3 C2.35 3 0.7 3 -1 3 C-0.67 2.01 -0.34 1.02 0 0 Z " fill="#629850" transform="translate(259,228)"/>
<path d="M0 0 C0.66 1.32 1.32 2.64 2 4 C1.01 4.66 0.02 5.32 -1 6 C-1.99 5.67 -2.98 5.34 -4 5 C-3.6875 3.0625 -3.6875 3.0625 -3 1 C-2.01 0.67 -1.02 0.34 0 0 Z " fill="#19356C" transform="translate(68,224)"/>
<path d="M0 0 C0 3 0 3 -1 5 C-1.99 5 -2.98 5 -4 5 C-4 5.66 -4 6.32 -4 7 C-4.66 6.67 -5.32 6.34 -6 6 C-5.8125 4.125 -5.8125 4.125 -5 2 C-2.4375 0.75 -2.4375 0.75 0 0 Z " fill="#5BB041" transform="translate(488,250)"/>
<path d="M0 0 C4.875 1.75 4.875 1.75 6 4 C4.02 4.99 2.04 5.98 0 7 C0 4.69 0 2.38 0 0 Z " fill="#0F3C5D" transform="translate(70,232)"/>
<path d="M0 0 C2 1 2 1 3.125 3.375 C4 6 4 6 4 9 C3.01 8.67 2.02 8.34 1 8 C0.67 5.36 0.34 2.72 0 0 Z " fill="#15255B" transform="translate(152,246)"/>
<path d="M0 0 C0.99 0.66 1.98 1.32 3 2 C2.4225 2.2475 1.845 2.495 1.25 2.75 C-1.3002997 4.16683317 -3.01785701 5.87627537 -5 8 C-5 5 -5 5 -2.5 2.3125 C-1.675 1.549375 -0.85 0.78625 0 0 Z " fill="#59AD39" transform="translate(433,230)"/>
<path d="M0 0 C0.66 0.99 1.32 1.98 2 3 C0 5 -2 7 -4 9 C-4 5.00095031 -2.27413033 3.19799578 0 0 Z " fill="#114350" transform="translate(442,254)"/>
<path d="M0 0 C1.32 0.33 2.64 0.66 4 1 C4.66 3.31 5.32 5.62 6 8 C1.125 3.375 1.125 3.375 0 0 Z " fill="#164550" transform="translate(454,252)"/>
<path d="M0 0 C2.64 0 5.28 0 8 0 C8.33 0.66 8.66 1.32 9 2 C8.67 2.99 8.34 3.98 8 5 C7.34 5 6.68 5 6 5 C6 3.68 6 2.36 6 1 C4.02 1 2.04 1 0 1 C0 0.67 0 0.34 0 0 Z " fill="#1F2850" transform="translate(174,249)"/>
<path d="M0 0 C0.99 0 1.98 0 3 0 C2.67 1.65 2.34 3.3 2 5 C1.01 4.67 0.02 4.34 -1 4 C-0.67 2.68 -0.34 1.36 0 0 Z " fill="#4DAB32" transform="translate(251,227)"/>
<path d="M0 0 C2 1 2 1 2 1 Z " fill="#404040" transform="translate(60,229)"/>
<path d="" fill="#333366" transform="translate(0,0)"/>
<path d="" fill="#000000" transform="translate(0,0)"/>
<path d="" fill="#666666" transform="translate(0,0)"/>
<path d="" fill="#000000" transform="translate(0,0)"/>
<path d="" fill="#000000" transform="translate(0,0)"/>
<path d="" fill="#000000" transform="translate(0,0)"/>
<path d="" fill="#000000" transform="translate(0,0)"/>
<path d="" fill="#008080" transform="translate(0,0)"/>
<path d="" fill="#000000" transform="translate(0,0)"/>
</svg>
